<?xml version="1.0" encoding="UTF-8" standalone="no"?><svg xmlns="http://www.w3.org/2000/svg" xmlns:xlink="http://www.w3.org/1999/xlink" contentScriptType="application/ecmascript" contentStyleType="text/css" height="375px" preserveAspectRatio="none" style="width:891px;height:375px;" version="1.1" viewBox="0 0 891 375" width="891px" zoomAndPan="magnify"><defs><filter height="300%" id="f11e5sh2pc9ds0" width="300%" x="-1" y="-1"><feGaussianBlur result="blurOut" stdDeviation="2.0"/><feColorMatrix in="blurOut" result="blurOut2" type="matrix" values="0 0 0 0 0 0 0 0 0 0 0 0 0 0 0 0 0 0 .4 0"/><feOffset dx="4.0" dy="4.0" in="blurOut2" result="blurOut3"/><feBlend in="SourceGraphic" in2="blurOut3" mode="normal"/></filter></defs><g><!--MD5=[0b1c906c3ae1612700429be8467dc0b0]
class move_component--><rect codeLine="6" fill="#FEFECE" filter="url(#f11e5sh2pc9ds0)" height="86.8652" id="move_component" style="stroke:#A80036;stroke-width:1.5;" width="133" x="41.5" y="7"/><ellipse cx="56.5" cy="23" fill="#ADD1B2" rx="11" ry="11" style="stroke:#A80036;stroke-width:1.0;"/><path d="M58.9731,29.1431 Q58.3921,29.4419 57.7529,29.5913 Q57.1138,29.7407 56.4082,29.7407 Q53.9014,29.7407 52.5815,28.0889 Q51.2617,26.437 51.2617,23.3159 Q51.2617,20.1865 52.5815,18.5347 Q53.9014,16.8828 56.4082,16.8828 Q57.1138,16.8828 57.7612,17.0322 Q58.4087,17.1816 58.9731,17.4805 L58.9731,20.2031 Q58.3423,19.6221 57.7488,19.3523 Q57.1553,19.0825 56.5244,19.0825 Q55.1797,19.0825 54.4949,20.1492 Q53.8101,21.2158 53.8101,23.3159 Q53.8101,25.4077 54.4949,26.4744 Q55.1797,27.541 56.5244,27.541 Q57.1553,27.541 57.7488,27.2712 Q58.3423,27.0015 58.9731,26.4204 Z " fill="#000000"/><text fill="#000000" font-family="sans-serif" font-size="12" lengthAdjust="spacing" textLength="101" x="70.5" y="27.5352">move_component</text><line style="stroke:#A80036;stroke-width:1.5;" x1="42.5" x2="173.5" y1="39" y2="39"/><text fill="#000000" font-family="sans-serif" font-size="11" lengthAdjust="spacing" textLength="24" x="47.5" y="53.6348">int x</text><text fill="#000000" font-family="sans-serif" font-size="11" lengthAdjust="spacing" textLength="23" x="47.5" y="66.5898">int y</text><text fill="#000000" font-family="sans-serif" font-size="11" lengthAdjust="spacing" textLength="94" x="47.5" y="79.5449">tile_idx residnecy</text><line style="stroke:#A80036;stroke-width:1.5;" x1="42.5" x2="173.5" y1="85.8652" y2="85.8652"/><!--MD5=[fe3b441479ec9807c34a1d6ee26910d5]
class atk_component--><rect codeLine="12" fill="#FEFECE" filter="url(#f11e5sh2pc9ds0)" height="60.9551" id="atk_component" style="stroke:#A80036;stroke-width:1.5;" width="120" x="210" y="20"/><ellipse cx="225" cy="36" fill="#ADD1B2" rx="11" ry="11" style="stroke:#A80036;stroke-width:1.0;"/><path d="M227.4731,42.1431 Q226.8921,42.4419 226.2529,42.5913 Q225.6138,42.7407 224.9082,42.7407 Q222.4014,42.7407 221.0815,41.0889 Q219.7617,39.437 219.7617,36.3159 Q219.7617,33.1865 221.0815,31.5347 Q222.4014,29.8828 224.9082,29.8828 Q225.6138,29.8828 226.2612,30.0322 Q226.9087,30.1816 227.4731,30.4805 L227.4731,33.2031 Q226.8423,32.6221 226.2488,32.3523 Q225.6553,32.0825 225.0244,32.0825 Q223.6797,32.0825 222.9949,33.1492 Q222.3101,34.2158 222.3101,36.3159 Q222.3101,38.4077 222.9949,39.4744 Q223.6797,40.541 225.0244,40.541 Q225.6553,40.541 226.2488,40.2712 Q226.8423,40.0015 227.4731,39.4204 Z " fill="#000000"/><text fill="#000000" font-family="sans-serif" font-size="12" lengthAdjust="spacing" textLength="88" x="239" y="40.5352">atk_component</text><line style="stroke:#A80036;stroke-width:1.5;" x1="211" x2="329" y1="52" y2="52"/><text fill="#000000" font-family="sans-serif" font-size="11" lengthAdjust="spacing" textLength="59" x="216" y="66.6348">int damage</text><line style="stroke:#A80036;stroke-width:1.5;" x1="211" x2="329" y1="72.9551" y2="72.9551"/><!--MD5=[9b17b1d83b60514318931db0d24d0978]
class health_component--><rect codeLine="16" fill="#FEFECE" filter="url(#f11e5sh2pc9ds0)" height="73.9102" id="health_component" style="stroke:#A80036;stroke-width:1.5;" width="137" x="365.5" y="13.5"/><ellipse cx="380.5" cy="29.5" fill="#ADD1B2" rx="11" ry="11" style="stroke:#A80036;stroke-width:1.0;"/><path d="M382.9731,35.6431 Q382.3921,35.9419 381.7529,36.0913 Q381.1138,36.2407 380.4082,36.2407 Q377.9014,36.2407 376.5815,34.5889 Q375.2617,32.937 375.2617,29.8159 Q375.2617,26.6865 376.5815,25.0347 Q377.9014,23.3828 380.4082,23.3828 Q381.1138,23.3828 381.7612,23.5322 Q382.4087,23.6816 382.9731,23.9805 L382.9731,26.7031 Q382.3423,26.1221 381.7488,25.8523 Q381.1553,25.5825 380.5244,25.5825 Q379.1797,25.5825 378.4949,26.6492 Q377.8101,27.7158 377.8101,29.8159 Q377.8101,31.9077 378.4949,32.9744 Q379.1797,34.041 380.5244,34.041 Q381.1553,34.041 381.7488,33.7712 Q382.3423,33.5015 382.9731,32.9204 Z " fill="#000000"/><text fill="#000000" font-family="sans-serif" font-size="12" lengthAdjust="spacing" textLength="105" x="394.5" y="34.0352">health_component</text><line style="stroke:#A80036;stroke-width:1.5;" x1="366.5" x2="501.5" y1="45.5" y2="45.5"/><text fill="#000000" font-family="sans-serif" font-size="11" lengthAdjust="spacing" textLength="50" x="371.5" y="60.1348">int health</text><line style="stroke:#A80036;stroke-width:1.5;" x1="366.5" x2="501.5" y1="66.4551" y2="66.4551"/><text fill="#000000" font-family="sans-serif" font-size="11" lengthAdjust="spacing" textLength="89" x="371.5" y="81.0898">bool is_alive(T *)</text><!--MD5=[9ffb1aadf0b2940b5716be1bbbeced6c]
class repr_component--><rect codeLine="21" fill="#FEFECE" filter="url(#f11e5sh2pc9ds0)" height="73.9102" id="repr_component" style="stroke:#A80036;stroke-width:1.5;" width="202" x="7" y="160.5"/><ellipse cx="56.25" cy="176.5" fill="#ADD1B2" rx="11" ry="11" style="stroke:#A80036;stroke-width:1.0;"/><path d="M58.7231,182.6431 Q58.1421,182.9419 57.5029,183.0913 Q56.8638,183.2407 56.1582,183.2407 Q53.6514,183.2407 52.3315,181.5889 Q51.0117,179.937 51.0117,176.8159 Q51.0117,173.6865 52.3315,172.0347 Q53.6514,170.3828 56.1582,170.3828 Q56.8638,170.3828 57.5112,170.5322 Q58.1587,170.6816 58.7231,170.9805 L58.7231,173.7031 Q58.0923,173.1221 57.4988,172.8523 Q56.9053,172.5825 56.2744,172.5825 Q54.9297,172.5825 54.2449,173.6492 Q53.5601,174.7158 53.5601,176.8159 Q53.5601,178.9077 54.2449,179.9744 Q54.9297,181.041 56.2744,181.041 Q56.9053,181.041 57.4988,180.7712 Q58.0923,180.5015 58.7231,179.9204 Z " fill="#000000"/><text fill="#000000" font-family="sans-serif" font-size="12" lengthAdjust="spacing" textLength="95" x="76.75" y="181.0352">repr_component</text><line style="stroke:#A80036;stroke-width:1.5;" x1="8" x2="208" y1="192.5" y2="192.5"/><text fill="#000000" font-family="sans-serif" font-size="11" lengthAdjust="spacing" textLength="58" x="13" y="207.1348">string repr</text><line style="stroke:#A80036;stroke-width:1.5;" x1="8" x2="208" y1="213.4551" y2="213.4551"/><text fill="#000000" font-family="sans-serif" font-size="11" lengthAdjust="spacing" textLength="190" x="13" y="228.0898">string compute_representation(T *)</text><!--MD5=[02da7f7aecc82993dc76088c46b795a0]
class decision_making_component--><rect codeLine="26" fill="#FEFECE" filter="url(#f11e5sh2pc9ds0)" height="86.8652" id="decision_making_component" style="stroke:#A80036;stroke-width:1.5;" width="197" x="537.5" y="7"/><ellipse cx="552.5" cy="23" fill="#ADD1B2" rx="11" ry="11" style="stroke:#A80036;stroke-width:1.0;"/><path d="M554.9731,29.1431 Q554.3921,29.4419 553.7529,29.5913 Q553.1138,29.7407 552.4082,29.7407 Q549.9014,29.7407 548.5815,28.0889 Q547.2617,26.437 547.2617,23.3159 Q547.2617,20.1865 548.5815,18.5347 Q549.9014,16.8828 552.4082,16.8828 Q553.1138,16.8828 553.7612,17.0322 Q554.4087,17.1816 554.9731,17.4805 L554.9731,20.2031 Q554.3423,19.6221 553.7488,19.3523 Q553.1553,19.0825 552.5244,19.0825 Q551.1797,19.0825 550.4949,20.1492 Q549.8101,21.2158 549.8101,23.3159 Q549.8101,25.4077 550.4949,26.4744 Q551.1797,27.541 552.5244,27.541 Q553.1553,27.541 553.7488,27.2712 Q554.3423,27.0015 554.9731,26.4204 Z " fill="#000000"/><text fill="#000000" font-family="sans-serif" font-size="12" lengthAdjust="spacing" textLength="165" x="566.5" y="27.5352">decision_making_component</text><line style="stroke:#A80036;stroke-width:1.5;" x1="538.5" x2="733.5" y1="39" y2="39"/><text fill="#000000" font-family="sans-serif" font-size="11" lengthAdjust="spacing" textLength="62" x="543.5" y="53.6348">int decision</text><text fill="#000000" font-family="sans-serif" font-size="11" lengthAdjust="spacing" textLength="68" x="543.5" y="66.5898">int eye_sight</text><line style="stroke:#A80036;stroke-width:1.5;" x1="538.5" x2="733.5" y1="72.9102" y2="72.9102"/><text fill="#000000" font-family="sans-serif" font-size="11" lengthAdjust="spacing" textLength="148" x="543.5" y="87.5449">pair&lt;int, int&gt; get_velocity()</text><!--MD5=[53c00d11c91764b68aed1781a9683170]
class logging_component--><rect codeLine="32" fill="#FEFECE" filter="url(#f11e5sh2pc9ds0)" height="60.9551" id="logging_component" style="stroke:#A80036;stroke-width:1.5;" width="143" x="244.5" y="167"/><ellipse cx="259.5" cy="183" fill="#ADD1B2" rx="11" ry="11" style="stroke:#A80036;stroke-width:1.0;"/><path d="M261.9731,189.1431 Q261.3921,189.4419 260.7529,189.5913 Q260.1138,189.7407 259.4082,189.7407 Q256.9014,189.7407 255.5815,188.0889 Q254.2617,186.437 254.2617,183.3159 Q254.2617,180.1865 255.5815,178.5347 Q256.9014,176.8828 259.4082,176.8828 Q260.1138,176.8828 260.7612,177.0322 Q261.4087,177.1816 261.9731,177.4805 L261.9731,180.2031 Q261.3423,179.6221 260.7488,179.3523 Q260.1553,179.0825 259.5244,179.0825 Q258.1797,179.0825 257.4949,180.1492 Q256.8101,181.2158 256.8101,183.3159 Q256.8101,185.4077 257.4949,186.4744 Q258.1797,187.541 259.5244,187.541 Q260.1553,187.541 260.7488,187.2712 Q261.3423,187.0015 261.9731,186.4204 Z " fill="#000000"/><text fill="#000000" font-family="sans-serif" font-size="12" lengthAdjust="spacing" textLength="111" x="273.5" y="187.5352">logging_component</text><line style="stroke:#A80036;stroke-width:1.5;" x1="245.5" x2="386.5" y1="199" y2="199"/><text fill="#000000" font-family="sans-serif" font-size="11" lengthAdjust="spacing" textLength="52" x="250.5" y="213.6348">string log</text><line style="stroke:#A80036;stroke-width:1.5;" x1="245.5" x2="386.5" y1="219.9551" y2="219.9551"/><!--MD5=[ebd797d85073b2b074d2a6c5a191d4e9]
class strategy--><rect codeLine="36" fill="#FEFECE" filter="url(#f11e5sh2pc9ds0)" height="86.8652" id="strategy" style="stroke:#A80036;stroke-width:1.5;" width="90" x="591" y="154"/><ellipse cx="611.4" cy="170" fill="#A9DCDF" rx="11" ry="11" style="stroke:#A80036;stroke-width:1.0;"/><path d="M611.2633,165.3481 L610.1095,170.4199 L612.4254,170.4199 Z M609.7691,163.1069 L612.7657,163.1069 L616.1109,175.5 L613.6622,175.5 L612.8985,172.437 L609.6197,172.437 L608.8727,175.5 L606.4239,175.5 Z " fill="#000000"/><text fill="#000000" font-family="sans-serif" font-size="12" font-style="italic" lengthAdjust="spacing" textLength="46" x="626.6" y="174.5352">strategy</text><line style="stroke:#A80036;stroke-width:1.5;" x1="592" x2="680" y1="186" y2="186"/><text fill="#000000" font-family="sans-serif" font-size="11" lengthAdjust="spacing" textLength="78" x="597" y="200.6348">field_view view</text><text fill="#000000" font-family="sans-serif" font-size="11" lengthAdjust="spacing" textLength="45" x="597" y="213.5898">decision</text><line style="stroke:#A80036;stroke-width:1.5;" x1="592" x2="680" y1="219.9102" y2="219.9102"/><text fill="#000000" font-family="sans-serif" font-size="11" lengthAdjust="spacing" textLength="77" x="597" y="234.5449">form_decision</text><!--MD5=[1108fe7f4b2b67f04f66dd47d1c3b8cd]
class random_strategy--><rect codeLine="42" fill="#FEFECE" filter="url(#f11e5sh2pc9ds0)" height="60.9551" id="random_strategy" style="stroke:#A80036;stroke-width:1.5;" width="129" x="408.5" y="301"/><ellipse cx="423.5" cy="317" fill="#ADD1B2" rx="11" ry="11" style="stroke:#A80036;stroke-width:1.0;"/><path d="M425.9731,323.1431 Q425.3921,323.4419 424.7529,323.5913 Q424.1138,323.7407 423.4082,323.7407 Q420.9014,323.7407 419.5815,322.0889 Q418.2617,320.437 418.2617,317.3159 Q418.2617,314.1865 419.5815,312.5347 Q420.9014,310.8828 423.4082,310.8828 Q424.1138,310.8828 424.7612,311.0322 Q425.4087,311.1816 425.9731,311.4805 L425.9731,314.2031 Q425.3423,313.6221 424.7488,313.3523 Q424.1553,313.0825 423.5244,313.0825 Q422.1797,313.0825 421.4949,314.1492 Q420.8101,315.2158 420.8101,317.3159 Q420.8101,319.4077 421.4949,320.4744 Q422.1797,321.541 423.5244,321.541 Q424.1553,321.541 424.7488,321.2712 Q425.3423,321.0015 425.9731,320.4204 Z " fill="#000000"/><text fill="#000000" font-family="sans-serif" font-size="12" lengthAdjust="spacing" textLength="97" x="437.5" y="321.5352">random_strategy</text><line style="stroke:#A80036;stroke-width:1.5;" x1="409.5" x2="536.5" y1="333" y2="333"/><line style="stroke:#A80036;stroke-width:1.5;" x1="409.5" x2="536.5" y1="341" y2="341"/><text fill="#000000" font-family="sans-serif" font-size="11" lengthAdjust="spacing" textLength="77" x="414.5" y="355.6348">form_decision</text><!--MD5=[50a87a0c8910dfc0f87eca30e284812a]
class passive_strategy--><rect codeLine="45" fill="#FEFECE" filter="url(#f11e5sh2pc9ds0)" height="60.9551" id="passive_strategy" style="stroke:#A80036;stroke-width:1.5;" width="127" x="572.5" y="301"/><ellipse cx="587.5" cy="317" fill="#ADD1B2" rx="11" ry="11" style="stroke:#A80036;stroke-width:1.0;"/><path d="M589.9731,323.1431 Q589.3921,323.4419 588.7529,323.5913 Q588.1138,323.7407 587.4082,323.7407 Q584.9014,323.7407 583.5815,322.0889 Q582.2617,320.437 582.2617,317.3159 Q582.2617,314.1865 583.5815,312.5347 Q584.9014,310.8828 587.4082,310.8828 Q588.1138,310.8828 588.7612,311.0322 Q589.4087,311.1816 589.9731,311.4805 L589.9731,314.2031 Q589.3423,313.6221 588.7488,313.3523 Q588.1553,313.0825 587.5244,313.0825 Q586.1797,313.0825 585.4949,314.1492 Q584.8101,315.2158 584.8101,317.3159 Q584.8101,319.4077 585.4949,320.4744 Q586.1797,321.541 587.5244,321.541 Q588.1553,321.541 588.7488,321.2712 Q589.3423,321.0015 589.9731,320.4204 Z " fill="#000000"/><text fill="#000000" font-family="sans-serif" font-size="12" lengthAdjust="spacing" textLength="95" x="601.5" y="321.5352">passive_strategy</text><line style="stroke:#A80036;stroke-width:1.5;" x1="573.5" x2="698.5" y1="333" y2="333"/><line style="stroke:#A80036;stroke-width:1.5;" x1="573.5" x2="698.5" y1="341" y2="341"/><text fill="#000000" font-family="sans-serif" font-size="11" lengthAdjust="spacing" textLength="77" x="578.5" y="355.6348">form_decision</text><!--MD5=[1f8fadd204a08c1eed667c8e3f420826]
class argressive_strategy--><rect codeLine="48" fill="#FEFECE" filter="url(#f11e5sh2pc9ds0)" height="60.9551" id="argressive_strategy" style="stroke:#A80036;stroke-width:1.5;" width="143" x="734.5" y="301"/><ellipse cx="749.5" cy="317" fill="#ADD1B2" rx="11" ry="11" style="stroke:#A80036;stroke-width:1.0;"/><path d="M751.9731,323.1431 Q751.3921,323.4419 750.7529,323.5913 Q750.1138,323.7407 749.4082,323.7407 Q746.9014,323.7407 745.5815,322.0889 Q744.2617,320.437 744.2617,317.3159 Q744.2617,314.1865 745.5815,312.5347 Q746.9014,310.8828 749.4082,310.8828 Q750.1138,310.8828 750.7612,311.0322 Q751.4087,311.1816 751.9731,311.4805 L751.9731,314.2031 Q751.3423,313.6221 750.7488,313.3523 Q750.1553,313.0825 749.5244,313.0825 Q748.1797,313.0825 747.4949,314.1492 Q746.8101,315.2158 746.8101,317.3159 Q746.8101,319.4077 747.4949,320.4744 Q748.1797,321.541 749.5244,321.541 Q750.1553,321.541 750.7488,321.2712 Q751.3423,321.0015 751.9731,320.4204 Z " fill="#000000"/><text fill="#000000" font-family="sans-serif" font-size="12" lengthAdjust="spacing" textLength="111" x="763.5" y="321.5352">argressive_strategy</text><line style="stroke:#A80036;stroke-width:1.5;" x1="735.5" x2="876.5" y1="333" y2="333"/><line style="stroke:#A80036;stroke-width:1.5;" x1="735.5" x2="876.5" y1="341" y2="341"/><text fill="#000000" font-family="sans-serif" font-size="11" lengthAdjust="spacing" textLength="77" x="740.5" y="355.6348">form_decision</text><!--MD5=[9fa3ba9cfdc3ce9b00c8c61aa54057c9]
reverse link decision_making_component to strategy--><path codeLine="52" d="M636,107.36 C636,122.7 636,139.09 636,153.58 " fill="none" id="decision_making_component-backto-strategy" style="stroke:#A80036;stroke-width:1.0;"/><polygon fill="#A80036" points="636,94.22,632,100.22,636,106.22,640,100.22,636,94.22" style="stroke:#A80036;stroke-width:1.0;"/><!--MD5=[e1623966cabe22c6e3fdea7d5c10b36f]
reverse link strategy to random_strategy--><path codeLine="54" d="M574.74,248.11 C552.83,265.85 528.85,285.27 509.67,300.81 " fill="none" id="strategy-backto-random_strategy" style="stroke:#A80036;stroke-width:1.0;"/><polygon fill="none" points="570.65,242.42,590.6,235.27,579.46,253.3,570.65,242.42" style="stroke:#A80036;stroke-width:1.0;"/><!--MD5=[8c86101c9fe6ccd2bc0cc07180267697]
reverse link strategy to passive_strategy--><path codeLine="55" d="M636,261.66 C636,275.33 636,289.15 636,300.79 " fill="none" id="strategy-backto-passive_strategy" style="stroke:#A80036;stroke-width:1.0;"/><polygon fill="none" points="629,261.36,636,241.36,643,261.36,629,261.36" style="stroke:#A80036;stroke-width:1.0;"/><!--MD5=[9b5bcd4c94acaaeb7e865e8960bbe05f]
reverse link strategy to argressive_strategy--><path codeLine="56" d="M696.96,245.83 C720.63,264.21 747,284.69 767.88,300.9 " fill="none" id="strategy-backto-argressive_strategy" style="stroke:#A80036;stroke-width:1.0;"/><polygon fill="none" points="692.61,251.32,681.11,233.53,701.2,240.26,692.61,251.32" style="stroke:#A80036;stroke-width:1.0;"/><!--MD5=[68baeb202594612b2ef4d09babaa46b6]
link move_component to atk_component--><!--MD5=[bb74c36ff4aa37d9aedd6748cba0a556]
link atk_component to health_component--><!--MD5=[a69e551f3196756f8b3e0ea8fb6a17b3]
link move_component to repr_component--><!--MD5=[990f3c85be08eb7e25da224b1d9f7b79]
link repr_component to logging_component--><!--MD5=[690a68dc68e4196ae49e925b44c9a8d4]
@startuml componentDigram
    class move_component {
        {field} int x
        {field} int y
        {field} tile_idx residnecy
    }

    class atk_component {
        {field} int damage
    }

    class health_component {
        {field} int health
        {method} bool is_alive(T *)
    }

    class repr_component {
        {field} string repr
        {method} string compute_representation(T *)
    }

    class decision_making_component {
        {field} int decision
        {field} int eye_sight
        {method} pair<int, int> get_velocity()
    }

    class logging_component {
        {field} string log
    }
    
    abstract strategy{
        {field} field_view view
        {field} decision
        {method} form_decision
    }
    
    class random_strategy{
        {method} form_decision
    }
    class passive_strategy{
        {method} form_decision
    }
    class argressive_strategy{
        {method} form_decision
    }
    
    decision_making_component *- - strategy
    
    strategy <|- - random_strategy
    strategy <|- - passive_strategy
    strategy <|- - argressive_strategy
    
     
		
@enduml

PlantUML version 1.2021.5(Sun Apr 25 14:20:28 MSK 2021)
(GPL source distribution)
Java Runtime: OpenJDK Runtime Environment
JVM: OpenJDK 64-Bit Server VM
Default Encoding: UTF-8
Language: en
Country: GB
--></g></svg>