<?xml version="1.0" encoding="UTF-8" standalone="no"?><svg xmlns="http://www.w3.org/2000/svg" xmlns:xlink="http://www.w3.org/1999/xlink" contentScriptType="application/ecmascript" contentStyleType="text/css" height="496px" preserveAspectRatio="none" style="width:1204px;height:496px;" version="1.1" viewBox="0 0 1204 496" width="1204px" zoomAndPan="magnify"><defs><filter height="300%" id="f1vt3reswgv3zy" width="300%" x="-1" y="-1"><feGaussianBlur result="blurOut" stdDeviation="2.0"/><feColorMatrix in="blurOut" result="blurOut2" type="matrix" values="0 0 0 0 0 0 0 0 0 0 0 0 0 0 0 0 0 0 .4 0"/><feOffset dx="4.0" dy="4.0" in="blurOut2" result="blurOut3"/><feBlend in="SourceGraphic" in2="blurOut3" mode="normal"/></filter></defs><g><!--MD5=[f09eccff4f969cbf57a5c4045ebe9991]
class component--><rect codeLine="6" fill="#FEFECE" filter="url(#f1vt3reswgv3zy)" height="60.9551" id="component" style="stroke:#A80036;stroke-width:1.5;" width="96" x="509.5" y="7"/><ellipse cx="524.5" cy="23" fill="#ADD1B2" rx="11" ry="11" style="stroke:#A80036;stroke-width:1.0;"/><path d="M526.9731,29.1431 Q526.3921,29.4419 525.7529,29.5913 Q525.1138,29.7407 524.4082,29.7407 Q521.9014,29.7407 520.5815,28.0889 Q519.2617,26.437 519.2617,23.3159 Q519.2617,20.1865 520.5815,18.5347 Q521.9014,16.8828 524.4082,16.8828 Q525.1138,16.8828 525.7612,17.0322 Q526.4087,17.1816 526.9731,17.4805 L526.9731,20.2031 Q526.3423,19.6221 525.7488,19.3523 Q525.1553,19.0825 524.5244,19.0825 Q523.1797,19.0825 522.4949,20.1492 Q521.8101,21.2158 521.8101,23.3159 Q521.8101,25.4077 522.4949,26.4744 Q523.1797,27.541 524.5244,27.541 Q525.1553,27.541 525.7488,27.2712 Q526.3423,27.0015 526.9731,26.4204 Z " fill="#000000"/><text fill="#000000" font-family="sans-serif" font-size="12" lengthAdjust="spacing" textLength="64" x="538.5" y="27.5352">component</text><line style="stroke:#A80036;stroke-width:1.5;" x1="510.5" x2="604.5" y1="39" y2="39"/><text fill="#000000" font-family="sans-serif" font-size="11" lengthAdjust="spacing" textLength="27" x="515.5" y="53.6348">int id</text><line style="stroke:#A80036;stroke-width:1.5;" x1="510.5" x2="604.5" y1="59.9551" y2="59.9551"/><!--MD5=[0b1c906c3ae1612700429be8467dc0b0]
class move_component--><rect codeLine="10" fill="#FEFECE" filter="url(#f1vt3reswgv3zy)" height="86.8652" id="move_component" style="stroke:#A80036;stroke-width:1.5;" width="133" x="7" y="128"/><ellipse cx="22" cy="144" fill="#ADD1B2" rx="11" ry="11" style="stroke:#A80036;stroke-width:1.0;"/><path d="M24.4731,150.1431 Q23.8921,150.4419 23.2529,150.5913 Q22.6138,150.7407 21.9082,150.7407 Q19.4014,150.7407 18.0815,149.0889 Q16.7617,147.437 16.7617,144.3159 Q16.7617,141.1865 18.0815,139.5347 Q19.4014,137.8828 21.9082,137.8828 Q22.6138,137.8828 23.2612,138.0322 Q23.9087,138.1816 24.4731,138.4805 L24.4731,141.2031 Q23.8423,140.6221 23.2488,140.3523 Q22.6553,140.0825 22.0244,140.0825 Q20.6797,140.0825 19.9949,141.1492 Q19.3101,142.2158 19.3101,144.3159 Q19.3101,146.4077 19.9949,147.4744 Q20.6797,148.541 22.0244,148.541 Q22.6553,148.541 23.2488,148.2712 Q23.8423,148.0015 24.4731,147.4204 Z " fill="#000000"/><text fill="#000000" font-family="sans-serif" font-size="12" lengthAdjust="spacing" textLength="101" x="36" y="148.5352">move_component</text><line style="stroke:#A80036;stroke-width:1.5;" x1="8" x2="139" y1="160" y2="160"/><text fill="#000000" font-family="sans-serif" font-size="11" lengthAdjust="spacing" textLength="24" x="13" y="174.6348">int x</text><text fill="#000000" font-family="sans-serif" font-size="11" lengthAdjust="spacing" textLength="23" x="13" y="187.5898">int y</text><text fill="#000000" font-family="sans-serif" font-size="11" lengthAdjust="spacing" textLength="94" x="13" y="200.5449">tile_idx residnecy</text><line style="stroke:#A80036;stroke-width:1.5;" x1="8" x2="139" y1="206.8652" y2="206.8652"/><!--MD5=[fe3b441479ec9807c34a1d6ee26910d5]
class atk_component--><rect codeLine="16" fill="#FEFECE" filter="url(#f1vt3reswgv3zy)" height="60.9551" id="atk_component" style="stroke:#A80036;stroke-width:1.5;" width="120" x="175.5" y="141"/><ellipse cx="190.5" cy="157" fill="#ADD1B2" rx="11" ry="11" style="stroke:#A80036;stroke-width:1.0;"/><path d="M192.9731,163.1431 Q192.3921,163.4419 191.7529,163.5913 Q191.1138,163.7407 190.4082,163.7407 Q187.9014,163.7407 186.5815,162.0889 Q185.2617,160.437 185.2617,157.3159 Q185.2617,154.1865 186.5815,152.5347 Q187.9014,150.8828 190.4082,150.8828 Q191.1138,150.8828 191.7612,151.0322 Q192.4087,151.1816 192.9731,151.4805 L192.9731,154.2031 Q192.3423,153.6221 191.7488,153.3523 Q191.1553,153.0825 190.5244,153.0825 Q189.1797,153.0825 188.4949,154.1492 Q187.8101,155.2158 187.8101,157.3159 Q187.8101,159.4077 188.4949,160.4744 Q189.1797,161.541 190.5244,161.541 Q191.1553,161.541 191.7488,161.2712 Q192.3423,161.0015 192.9731,160.4204 Z " fill="#000000"/><text fill="#000000" font-family="sans-serif" font-size="12" lengthAdjust="spacing" textLength="88" x="204.5" y="161.5352">atk_component</text><line style="stroke:#A80036;stroke-width:1.5;" x1="176.5" x2="294.5" y1="173" y2="173"/><text fill="#000000" font-family="sans-serif" font-size="11" lengthAdjust="spacing" textLength="59" x="181.5" y="187.6348">int damage</text><line style="stroke:#A80036;stroke-width:1.5;" x1="176.5" x2="294.5" y1="193.9551" y2="193.9551"/><!--MD5=[9b17b1d83b60514318931db0d24d0978]
class health_component--><rect codeLine="20" fill="#FEFECE" filter="url(#f1vt3reswgv3zy)" height="86.8652" id="health_component" style="stroke:#A80036;stroke-width:1.5;" width="212" x="330.5" y="128"/><ellipse cx="379.75" cy="144" fill="#ADD1B2" rx="11" ry="11" style="stroke:#A80036;stroke-width:1.0;"/><path d="M382.2231,150.1431 Q381.6421,150.4419 381.0029,150.5913 Q380.3638,150.7407 379.6582,150.7407 Q377.1514,150.7407 375.8315,149.0889 Q374.5117,147.437 374.5117,144.3159 Q374.5117,141.1865 375.8315,139.5347 Q377.1514,137.8828 379.6582,137.8828 Q380.3638,137.8828 381.0112,138.0322 Q381.6587,138.1816 382.2231,138.4805 L382.2231,141.2031 Q381.5923,140.6221 380.9988,140.3523 Q380.4053,140.0825 379.7744,140.0825 Q378.4297,140.0825 377.7449,141.1492 Q377.0601,142.2158 377.0601,144.3159 Q377.0601,146.4077 377.7449,147.4744 Q378.4297,148.541 379.7744,148.541 Q380.4053,148.541 380.9988,148.2712 Q381.5923,148.0015 382.2231,147.4204 Z " fill="#000000"/><text fill="#000000" font-family="sans-serif" font-size="12" lengthAdjust="spacing" textLength="105" x="400.25" y="148.5352">health_component</text><line style="stroke:#A80036;stroke-width:1.5;" x1="331.5" x2="541.5" y1="160" y2="160"/><text fill="#000000" font-family="sans-serif" font-size="11" lengthAdjust="spacing" textLength="50" x="336.5" y="174.6348">int health</text><line style="stroke:#A80036;stroke-width:1.5;" x1="331.5" x2="541.5" y1="180.9551" y2="180.9551"/><text fill="#000000" font-family="sans-serif" font-size="11" lengthAdjust="spacing" textLength="89" x="336.5" y="195.5898">bool is_alive(T *)</text><text fill="#000000" font-family="sans-serif" font-size="11" lengthAdjust="spacing" textLength="200" x="336.5" y="208.5449">void receive_damage(T *, int damage)</text><!--MD5=[9ffb1aadf0b2940b5716be1bbbeced6c]
class repr_component--><rect codeLine="26" fill="#FEFECE" filter="url(#f1vt3reswgv3zy)" height="73.9102" id="repr_component" style="stroke:#A80036;stroke-width:1.5;" width="202" x="577.5" y="134.5"/><ellipse cx="626.75" cy="150.5" fill="#ADD1B2" rx="11" ry="11" style="stroke:#A80036;stroke-width:1.0;"/><path d="M629.2231,156.6431 Q628.6421,156.9419 628.0029,157.0913 Q627.3638,157.2407 626.6582,157.2407 Q624.1514,157.2407 622.8315,155.5889 Q621.5117,153.937 621.5117,150.8159 Q621.5117,147.6865 622.8315,146.0347 Q624.1514,144.3828 626.6582,144.3828 Q627.3638,144.3828 628.0112,144.5322 Q628.6587,144.6816 629.2231,144.9805 L629.2231,147.7031 Q628.5923,147.1221 627.9988,146.8523 Q627.4053,146.5825 626.7744,146.5825 Q625.4297,146.5825 624.7449,147.6492 Q624.0601,148.7158 624.0601,150.8159 Q624.0601,152.9077 624.7449,153.9744 Q625.4297,155.041 626.7744,155.041 Q627.4053,155.041 627.9988,154.7712 Q628.5923,154.5015 629.2231,153.9204 Z " fill="#000000"/><text fill="#000000" font-family="sans-serif" font-size="12" lengthAdjust="spacing" textLength="95" x="647.25" y="155.0352">repr_component</text><line style="stroke:#A80036;stroke-width:1.5;" x1="578.5" x2="778.5" y1="166.5" y2="166.5"/><text fill="#000000" font-family="sans-serif" font-size="11" lengthAdjust="spacing" textLength="58" x="583.5" y="181.1348">string repr</text><line style="stroke:#A80036;stroke-width:1.5;" x1="578.5" x2="778.5" y1="187.4551" y2="187.4551"/><text fill="#000000" font-family="sans-serif" font-size="11" lengthAdjust="spacing" textLength="190" x="583.5" y="202.0898">string compute_representation(T *)</text><!--MD5=[02da7f7aecc82993dc76088c46b795a0]
class decision_making_component--><rect codeLine="31" fill="#FEFECE" filter="url(#f1vt3reswgv3zy)" height="86.8652" id="decision_making_component" style="stroke:#A80036;stroke-width:1.5;" width="197" x="815" y="128"/><ellipse cx="830" cy="144" fill="#ADD1B2" rx="11" ry="11" style="stroke:#A80036;stroke-width:1.0;"/><path d="M832.4731,150.1431 Q831.8921,150.4419 831.2529,150.5913 Q830.6138,150.7407 829.9082,150.7407 Q827.4014,150.7407 826.0815,149.0889 Q824.7617,147.437 824.7617,144.3159 Q824.7617,141.1865 826.0815,139.5347 Q827.4014,137.8828 829.9082,137.8828 Q830.6138,137.8828 831.2612,138.0322 Q831.9087,138.1816 832.4731,138.4805 L832.4731,141.2031 Q831.8423,140.6221 831.2488,140.3523 Q830.6553,140.0825 830.0244,140.0825 Q828.6797,140.0825 827.9949,141.1492 Q827.3101,142.2158 827.3101,144.3159 Q827.3101,146.4077 827.9949,147.4744 Q828.6797,148.541 830.0244,148.541 Q830.6553,148.541 831.2488,148.2712 Q831.8423,148.0015 832.4731,147.4204 Z " fill="#000000"/><text fill="#000000" font-family="sans-serif" font-size="12" lengthAdjust="spacing" textLength="165" x="844" y="148.5352">decision_making_component</text><line style="stroke:#A80036;stroke-width:1.5;" x1="816" x2="1011" y1="160" y2="160"/><text fill="#000000" font-family="sans-serif" font-size="11" lengthAdjust="spacing" textLength="62" x="821" y="174.6348">int decision</text><text fill="#000000" font-family="sans-serif" font-size="11" lengthAdjust="spacing" textLength="68" x="821" y="187.5898">int eye_sight</text><line style="stroke:#A80036;stroke-width:1.5;" x1="816" x2="1011" y1="193.9102" y2="193.9102"/><text fill="#000000" font-family="sans-serif" font-size="11" lengthAdjust="spacing" textLength="148" x="821" y="208.5449">pair&lt;int, int&gt; get_velocity()</text><!--MD5=[53c00d11c91764b68aed1781a9683170]
class logging_component--><rect codeLine="37" fill="#FEFECE" filter="url(#f1vt3reswgv3zy)" height="60.9551" id="logging_component" style="stroke:#A80036;stroke-width:1.5;" width="143" x="1047" y="141"/><ellipse cx="1062" cy="157" fill="#ADD1B2" rx="11" ry="11" style="stroke:#A80036;stroke-width:1.0;"/><path d="M1064.4731,163.1431 Q1063.8921,163.4419 1063.2529,163.5913 Q1062.6138,163.7407 1061.9082,163.7407 Q1059.4014,163.7407 1058.0815,162.0889 Q1056.7617,160.437 1056.7617,157.3159 Q1056.7617,154.1865 1058.0815,152.5347 Q1059.4014,150.8828 1061.9082,150.8828 Q1062.6138,150.8828 1063.2612,151.0322 Q1063.9087,151.1816 1064.4731,151.4805 L1064.4731,154.2031 Q1063.8423,153.6221 1063.2488,153.3523 Q1062.6553,153.0825 1062.0244,153.0825 Q1060.6797,153.0825 1059.9949,154.1492 Q1059.3101,155.2158 1059.3101,157.3159 Q1059.3101,159.4077 1059.9949,160.4744 Q1060.6797,161.541 1062.0244,161.541 Q1062.6553,161.541 1063.2488,161.2712 Q1063.8423,161.0015 1064.4731,160.4204 Z " fill="#000000"/><text fill="#000000" font-family="sans-serif" font-size="12" lengthAdjust="spacing" textLength="111" x="1076" y="161.5352">logging_component</text><line style="stroke:#A80036;stroke-width:1.5;" x1="1048" x2="1189" y1="173" y2="173"/><text fill="#000000" font-family="sans-serif" font-size="11" lengthAdjust="spacing" textLength="52" x="1053" y="187.6348">string log</text><line style="stroke:#A80036;stroke-width:1.5;" x1="1048" x2="1189" y1="193.9551" y2="193.9551"/><!--MD5=[ebd797d85073b2b074d2a6c5a191d4e9]
class strategy--><rect codeLine="41" fill="#FEFECE" filter="url(#f1vt3reswgv3zy)" height="86.8652" id="strategy" style="stroke:#A80036;stroke-width:1.5;" width="90" x="868.5" y="275"/><ellipse cx="888.9" cy="291" fill="#A9DCDF" rx="11" ry="11" style="stroke:#A80036;stroke-width:1.0;"/><path d="M888.7633,286.3481 L887.6095,291.4199 L889.9254,291.4199 Z M887.2691,284.1069 L890.2657,284.1069 L893.6109,296.5 L891.1622,296.5 L890.3985,293.437 L887.1197,293.437 L886.3727,296.5 L883.9239,296.5 Z " fill="#000000"/><text fill="#000000" font-family="sans-serif" font-size="12" font-style="italic" lengthAdjust="spacing" textLength="46" x="904.1" y="295.5352">strategy</text><line style="stroke:#A80036;stroke-width:1.5;" x1="869.5" x2="957.5" y1="307" y2="307"/><text fill="#000000" font-family="sans-serif" font-size="11" lengthAdjust="spacing" textLength="78" x="874.5" y="321.6348">field_view view</text><text fill="#000000" font-family="sans-serif" font-size="11" lengthAdjust="spacing" textLength="45" x="874.5" y="334.5898">decision</text><line style="stroke:#A80036;stroke-width:1.5;" x1="869.5" x2="957.5" y1="340.9102" y2="340.9102"/><text fill="#000000" font-family="sans-serif" font-size="11" lengthAdjust="spacing" textLength="77" x="874.5" y="355.5449">form_decision</text><!--MD5=[1108fe7f4b2b67f04f66dd47d1c3b8cd]
class random_strategy--><rect codeLine="47" fill="#FEFECE" filter="url(#f1vt3reswgv3zy)" height="60.9551" id="random_strategy" style="stroke:#A80036;stroke-width:1.5;" width="129" x="686" y="422"/><ellipse cx="701" cy="438" fill="#ADD1B2" rx="11" ry="11" style="stroke:#A80036;stroke-width:1.0;"/><path d="M703.4731,444.1431 Q702.8921,444.4419 702.2529,444.5913 Q701.6138,444.7407 700.9082,444.7407 Q698.4014,444.7407 697.0815,443.0889 Q695.7617,441.437 695.7617,438.3159 Q695.7617,435.1865 697.0815,433.5347 Q698.4014,431.8828 700.9082,431.8828 Q701.6138,431.8828 702.2612,432.0322 Q702.9087,432.1816 703.4731,432.4805 L703.4731,435.2031 Q702.8423,434.6221 702.2488,434.3523 Q701.6553,434.0825 701.0244,434.0825 Q699.6797,434.0825 698.9949,435.1492 Q698.3101,436.2158 698.3101,438.3159 Q698.3101,440.4077 698.9949,441.4744 Q699.6797,442.541 701.0244,442.541 Q701.6553,442.541 702.2488,442.2712 Q702.8423,442.0015 703.4731,441.4204 Z " fill="#000000"/><text fill="#000000" font-family="sans-serif" font-size="12" lengthAdjust="spacing" textLength="97" x="715" y="442.5352">random_strategy</text><line style="stroke:#A80036;stroke-width:1.5;" x1="687" x2="814" y1="454" y2="454"/><line style="stroke:#A80036;stroke-width:1.5;" x1="687" x2="814" y1="462" y2="462"/><text fill="#000000" font-family="sans-serif" font-size="11" lengthAdjust="spacing" textLength="77" x="692" y="476.6348">form_decision</text><!--MD5=[50a87a0c8910dfc0f87eca30e284812a]
class passive_strategy--><rect codeLine="50" fill="#FEFECE" filter="url(#f1vt3reswgv3zy)" height="60.9551" id="passive_strategy" style="stroke:#A80036;stroke-width:1.5;" width="127" x="850" y="422"/><ellipse cx="865" cy="438" fill="#ADD1B2" rx="11" ry="11" style="stroke:#A80036;stroke-width:1.0;"/><path d="M867.4731,444.1431 Q866.8921,444.4419 866.2529,444.5913 Q865.6138,444.7407 864.9082,444.7407 Q862.4014,444.7407 861.0815,443.0889 Q859.7617,441.437 859.7617,438.3159 Q859.7617,435.1865 861.0815,433.5347 Q862.4014,431.8828 864.9082,431.8828 Q865.6138,431.8828 866.2612,432.0322 Q866.9087,432.1816 867.4731,432.4805 L867.4731,435.2031 Q866.8423,434.6221 866.2488,434.3523 Q865.6553,434.0825 865.0244,434.0825 Q863.6797,434.0825 862.9949,435.1492 Q862.3101,436.2158 862.3101,438.3159 Q862.3101,440.4077 862.9949,441.4744 Q863.6797,442.541 865.0244,442.541 Q865.6553,442.541 866.2488,442.2712 Q866.8423,442.0015 867.4731,441.4204 Z " fill="#000000"/><text fill="#000000" font-family="sans-serif" font-size="12" lengthAdjust="spacing" textLength="95" x="879" y="442.5352">passive_strategy</text><line style="stroke:#A80036;stroke-width:1.5;" x1="851" x2="976" y1="454" y2="454"/><line style="stroke:#A80036;stroke-width:1.5;" x1="851" x2="976" y1="462" y2="462"/><text fill="#000000" font-family="sans-serif" font-size="11" lengthAdjust="spacing" textLength="77" x="856" y="476.6348">form_decision</text><!--MD5=[1f8fadd204a08c1eed667c8e3f420826]
class argressive_strategy--><rect codeLine="53" fill="#FEFECE" filter="url(#f1vt3reswgv3zy)" height="60.9551" id="argressive_strategy" style="stroke:#A80036;stroke-width:1.5;" width="143" x="1012" y="422"/><ellipse cx="1027" cy="438" fill="#ADD1B2" rx="11" ry="11" style="stroke:#A80036;stroke-width:1.0;"/><path d="M1029.4731,444.1431 Q1028.8921,444.4419 1028.2529,444.5913 Q1027.6138,444.7407 1026.9082,444.7407 Q1024.4014,444.7407 1023.0815,443.0889 Q1021.7617,441.437 1021.7617,438.3159 Q1021.7617,435.1865 1023.0815,433.5347 Q1024.4014,431.8828 1026.9082,431.8828 Q1027.6138,431.8828 1028.2612,432.0322 Q1028.9087,432.1816 1029.4731,432.4805 L1029.4731,435.2031 Q1028.8423,434.6221 1028.2488,434.3523 Q1027.6553,434.0825 1027.0244,434.0825 Q1025.6797,434.0825 1024.9949,435.1492 Q1024.3101,436.2158 1024.3101,438.3159 Q1024.3101,440.4077 1024.9949,441.4744 Q1025.6797,442.541 1027.0244,442.541 Q1027.6553,442.541 1028.2488,442.2712 Q1028.8423,442.0015 1029.4731,441.4204 Z " fill="#000000"/><text fill="#000000" font-family="sans-serif" font-size="12" lengthAdjust="spacing" textLength="111" x="1041" y="442.5352">argressive_strategy</text><line style="stroke:#A80036;stroke-width:1.5;" x1="1013" x2="1154" y1="454" y2="454"/><line style="stroke:#A80036;stroke-width:1.5;" x1="1013" x2="1154" y1="462" y2="462"/><text fill="#000000" font-family="sans-serif" font-size="11" lengthAdjust="spacing" textLength="77" x="1018" y="476.6348">form_decision</text><!--MD5=[1e206ee44144a34c939eb30b3e4ad9db]
reverse link component to move_component--><path codeLine="57" d="M489.53,48.57 C408.97,61.68 271.43,87.78 158.5,128 C152.44,130.16 146.25,132.65 140.12,135.31 " fill="none" id="component-backto-move_component" style="stroke:#A80036;stroke-width:1.0;"/><polygon fill="none" points="488.61,41.63,509.46,45.4,490.81,55.46,488.61,41.63" style="stroke:#A80036;stroke-width:1.0;"/><!--MD5=[760f187f785ff756f47dde1f90063b66]
reverse link component to atk_component--><path codeLine="58" d="M490.43,60.12 C440.81,76.83 371.97,101.52 313.5,128 C304.93,131.88 296.02,136.33 287.41,140.84 " fill="none" id="component-backto-atk_component" style="stroke:#A80036;stroke-width:1.0;"/><polygon fill="none" points="488.25,53.47,509.44,53.79,492.67,66.75,488.25,53.47" style="stroke:#A80036;stroke-width:1.0;"/><!--MD5=[fa7472697c8e78b04ccbfbaa26648dd5]
reverse link component to health_component--><path codeLine="59" d="M516.63,83.09 C503.34,97.58 488.64,113.62 475.5,127.96 " fill="none" id="component-backto-health_component" style="stroke:#A80036;stroke-width:1.0;"/><polygon fill="none" points="511.67,78.14,530.35,68.12,521.99,87.6,511.67,78.14" style="stroke:#A80036;stroke-width:1.0;"/><!--MD5=[dfadc7d0a57ae570bc799094f1a1f891]
reverse link component to repr_component--><path codeLine="60" d="M598.34,83.05 C613.66,99.76 630.87,118.54 645.4,134.39 " fill="none" id="component-backto-repr_component" style="stroke:#A80036;stroke-width:1.0;"/><polygon fill="none" points="593.01,87.6,584.65,68.12,603.33,78.14,593.01,87.6" style="stroke:#A80036;stroke-width:1.0;"/><!--MD5=[0a6ce89aa4c1357145d5565e9c7fd073]
reverse link component to decision_making_component--><path codeLine="61" d="M624.56,63.36 C678.24,83.27 754.31,111.47 814.92,133.95 " fill="none" id="component-backto-decision_making_component" style="stroke:#A80036;stroke-width:1.0;"/><polygon fill="none" points="621.83,69.82,605.51,56.3,626.7,56.69,621.83,69.82" style="stroke:#A80036;stroke-width:1.0;"/><!--MD5=[2b21446ad5ee05f0df87dc965a9d0364]
reverse link component to logging_component--><path codeLine="62" d="M625.75,45.83 C718.78,57.08 889.82,82.26 1029.5,128 C1040.24,131.52 1051.36,136.05 1061.94,140.83 " fill="none" id="component-backto-logging_component" style="stroke:#A80036;stroke-width:1.0;"/><polygon fill="none" points="624.8,52.77,605.75,43.48,626.43,38.86,624.8,52.77" style="stroke:#A80036;stroke-width:1.0;"/><!--MD5=[9fa3ba9cfdc3ce9b00c8c61aa54057c9]
reverse link decision_making_component to strategy--><path codeLine="65" d="M913.5,228.36 C913.5,243.7 913.5,260.09 913.5,274.58 " fill="none" id="decision_making_component-backto-strategy" style="stroke:#A80036;stroke-width:1.0;"/><polygon fill="#A80036" points="913.5,215.22,909.5,221.22,913.5,227.22,917.5,221.22,913.5,215.22" style="stroke:#A80036;stroke-width:1.0;"/><!--MD5=[e1623966cabe22c6e3fdea7d5c10b36f]
reverse link strategy to random_strategy--><path codeLine="67" d="M852.24,369.11 C830.33,386.85 806.35,406.27 787.17,421.81 " fill="none" id="strategy-backto-random_strategy" style="stroke:#A80036;stroke-width:1.0;"/><polygon fill="none" points="848.15,363.42,868.1,356.27,856.96,374.3,848.15,363.42" style="stroke:#A80036;stroke-width:1.0;"/><!--MD5=[8c86101c9fe6ccd2bc0cc07180267697]
reverse link strategy to passive_strategy--><path codeLine="68" d="M913.5,382.66 C913.5,396.33 913.5,410.15 913.5,421.79 " fill="none" id="strategy-backto-passive_strategy" style="stroke:#A80036;stroke-width:1.0;"/><polygon fill="none" points="906.5,382.36,913.5,362.36,920.5,382.36,906.5,382.36" style="stroke:#A80036;stroke-width:1.0;"/><!--MD5=[9b5bcd4c94acaaeb7e865e8960bbe05f]
reverse link strategy to argressive_strategy--><path codeLine="69" d="M974.46,366.83 C998.13,385.21 1024.5,405.69 1045.38,421.9 " fill="none" id="strategy-backto-argressive_strategy" style="stroke:#A80036;stroke-width:1.0;"/><polygon fill="none" points="970.11,372.32,958.61,354.53,978.7,361.26,970.11,372.32" style="stroke:#A80036;stroke-width:1.0;"/><!--MD5=[5e4a602015979179ab414ea63e230f3c]
@startuml componentDigram
    class component{
        {field} int id
    }
    
    class move_component {
        {field} int x
        {field} int y
        {field} tile_idx residnecy
    }

    class atk_component {
        {field} int damage
    }

    class health_component {
        {field} int health
        {method} bool is_alive(T *)
        {method} void receive_damage(T *, int damage)
    }

    class repr_component {
        {field} string repr
        {method} string compute_representation(T *)
    }

    class decision_making_component {
        {field} int decision
        {field} int eye_sight
        {method} pair<int, int> get_velocity()
    }

    class logging_component {
        {field} string log
    }
    
    abstract strategy{
        {field} field_view view
        {field} decision
        {method} form_decision
    }
    
    class random_strategy{
        {method} form_decision
    }
    class passive_strategy{
        {method} form_decision
    }
    class argressive_strategy{
        {method} form_decision
    }
    
    component <|- - move_component
    component <|- - atk_component
    component <|- - health_component
    component <|- - repr_component
    component <|- - decision_making_component
    component <|- - logging_component
    
    
    decision_making_component *- - strategy
    
    strategy <|- - random_strategy
    strategy <|- - passive_strategy
    strategy <|- - argressive_strategy
    
     
		
@enduml

PlantUML version 1.2021.5(Sun Apr 25 14:20:28 MSK 2021)
(GPL source distribution)
Java Runtime: OpenJDK Runtime Environment
JVM: OpenJDK 64-Bit Server VM
Default Encoding: UTF-8
Language: en
Country: GB
--></g></svg>