<?xml version="1.0" encoding="UTF-8" standalone="no"?><svg xmlns="http://www.w3.org/2000/svg" xmlns:xlink="http://www.w3.org/1999/xlink" contentScriptType="application/ecmascript" contentStyleType="text/css" height="391px" preserveAspectRatio="none" style="width:1824px;height:391px;" version="1.1" viewBox="0 0 1824 391" width="1824px" zoomAndPan="magnify"><defs><filter height="300%" id="f1k2onw2pjyw9y" width="300%" x="-1" y="-1"><feGaussianBlur result="blurOut" stdDeviation="2.0"/><feColorMatrix in="blurOut" result="blurOut2" type="matrix" values="0 0 0 0 0 0 0 0 0 0 0 0 0 0 0 0 0 0 .4 0"/><feOffset dx="4.0" dy="4.0" in="blurOut2" result="blurOut3"/><feBlend in="SourceGraphic" in2="blurOut3" mode="normal"/></filter></defs><g><!--MD5=[c33db22cd91d622c105bbe7bf67b0931]
cluster Components--><polygon fill="#DDDDDD" filter="url(#f1k2onw2pjyw9y)" points="742,261,839,261,846,283.4883,1807,283.4883,1807,360,742,360,742,261" style="stroke:#000000;stroke-width:1.5;"/><line style="stroke:#000000;stroke-width:1.5;" x1="742" x2="846" y1="283.4883" y2="283.4883"/><text fill="#000000" font-family="sans-serif" font-size="14" font-weight="bold" lengthAdjust="spacing" textLength="91" x="746" y="276.5352">Components</text><!--MD5=[114f4823940f317c08f5bedd633c9afd]
cluster Entities--><polygon fill="#DDDDDD" filter="url(#f1k2onw2pjyw9y)" points="16,6,77,6,84,28.4883,718,28.4883,718,384,16,384,16,6" style="stroke:#000000;stroke-width:1.5;"/><line style="stroke:#000000;stroke-width:1.5;" x1="16" x2="84" y1="28.4883" y2="28.4883"/><text fill="#000000" font-family="sans-serif" font-size="14" font-weight="bold" lengthAdjust="spacing" textLength="55" x="20" y="21.5352">Entities</text><!--MD5=[d0924db493ed82773140f21d42347412]
cluster Goblins--><polygon fill="#005300" filter="url(#f1k2onw2pjyw9y)" points="308,140,369,140,376,162.4883,596,162.4883,596,360,308,360,308,140" style="stroke:#000000;stroke-width:1.5;"/><line style="stroke:#000000;stroke-width:1.5;" x1="308" x2="376" y1="162.4883" y2="162.4883"/><text fill="#000000" font-family="sans-serif" font-size="14" font-weight="bold" lengthAdjust="spacing" textLength="55" x="312" y="155.5352">Goblins</text><!--MD5=[0b1c906c3ae1612700429be8467dc0b0]
class move_component--><rect codeLine="79" fill="#FEFECE" filter="url(#f1k2onw2pjyw9y)" height="48" id="move_component" style="stroke:#A80036;stroke-width:1.5;" width="133" x="936.5" y="296"/><ellipse cx="951.5" cy="312" fill="#ADD1B2" rx="11" ry="11" style="stroke:#A80036;stroke-width:1.0;"/><path d="M953.9731,318.1431 Q953.3921,318.4419 952.7529,318.5913 Q952.1138,318.7407 951.4082,318.7407 Q948.9014,318.7407 947.5815,317.0889 Q946.2617,315.437 946.2617,312.3159 Q946.2617,309.1865 947.5815,307.5347 Q948.9014,305.8828 951.4082,305.8828 Q952.1138,305.8828 952.7612,306.0322 Q953.4087,306.1816 953.9731,306.4805 L953.9731,309.2031 Q953.3423,308.6221 952.7488,308.3523 Q952.1553,308.0825 951.5244,308.0825 Q950.1797,308.0825 949.4949,309.1492 Q948.8101,310.2158 948.8101,312.3159 Q948.8101,314.4077 949.4949,315.4744 Q950.1797,316.541 951.5244,316.541 Q952.1553,316.541 952.7488,316.2712 Q953.3423,316.0015 953.9731,315.4204 Z " fill="#000000"/><text fill="#000000" font-family="sans-serif" font-size="12" lengthAdjust="spacing" textLength="101" x="965.5" y="316.5352">move_component</text><line style="stroke:#A80036;stroke-width:1.5;" x1="937.5" x2="1068.5" y1="328" y2="328"/><line style="stroke:#A80036;stroke-width:1.5;" x1="937.5" x2="1068.5" y1="336" y2="336"/><!--MD5=[fe3b441479ec9807c34a1d6ee26910d5]
class atk_component--><rect codeLine="80" fill="#FEFECE" filter="url(#f1k2onw2pjyw9y)" height="48" id="atk_component" style="stroke:#A80036;stroke-width:1.5;" width="120" x="1671" y="296"/><ellipse cx="1686" cy="312" fill="#ADD1B2" rx="11" ry="11" style="stroke:#A80036;stroke-width:1.0;"/><path d="M1688.4731,318.1431 Q1687.8921,318.4419 1687.2529,318.5913 Q1686.6138,318.7407 1685.9082,318.7407 Q1683.4014,318.7407 1682.0815,317.0889 Q1680.7617,315.437 1680.7617,312.3159 Q1680.7617,309.1865 1682.0815,307.5347 Q1683.4014,305.8828 1685.9082,305.8828 Q1686.6138,305.8828 1687.2612,306.0322 Q1687.9087,306.1816 1688.4731,306.4805 L1688.4731,309.2031 Q1687.8423,308.6221 1687.2488,308.3523 Q1686.6553,308.0825 1686.0244,308.0825 Q1684.6797,308.0825 1683.9949,309.1492 Q1683.3101,310.2158 1683.3101,312.3159 Q1683.3101,314.4077 1683.9949,315.4744 Q1684.6797,316.541 1686.0244,316.541 Q1686.6553,316.541 1687.2488,316.2712 Q1687.8423,316.0015 1688.4731,315.4204 Z " fill="#000000"/><text fill="#000000" font-family="sans-serif" font-size="12" lengthAdjust="spacing" textLength="88" x="1700" y="316.5352">atk_component</text><line style="stroke:#A80036;stroke-width:1.5;" x1="1672" x2="1790" y1="328" y2="328"/><line style="stroke:#A80036;stroke-width:1.5;" x1="1672" x2="1790" y1="336" y2="336"/><!--MD5=[9b17b1d83b60514318931db0d24d0978]
class health_component--><rect codeLine="81" fill="#FEFECE" filter="url(#f1k2onw2pjyw9y)" height="48" id="health_component" style="stroke:#A80036;stroke-width:1.5;" width="137" x="1266.5" y="296"/><ellipse cx="1281.5" cy="312" fill="#ADD1B2" rx="11" ry="11" style="stroke:#A80036;stroke-width:1.0;"/><path d="M1283.9731,318.1431 Q1283.3921,318.4419 1282.7529,318.5913 Q1282.1138,318.7407 1281.4082,318.7407 Q1278.9014,318.7407 1277.5815,317.0889 Q1276.2617,315.437 1276.2617,312.3159 Q1276.2617,309.1865 1277.5815,307.5347 Q1278.9014,305.8828 1281.4082,305.8828 Q1282.1138,305.8828 1282.7612,306.0322 Q1283.4087,306.1816 1283.9731,306.4805 L1283.9731,309.2031 Q1283.3423,308.6221 1282.7488,308.3523 Q1282.1553,308.0825 1281.5244,308.0825 Q1280.1797,308.0825 1279.4949,309.1492 Q1278.8101,310.2158 1278.8101,312.3159 Q1278.8101,314.4077 1279.4949,315.4744 Q1280.1797,316.541 1281.5244,316.541 Q1282.1553,316.541 1282.7488,316.2712 Q1283.3423,316.0015 1283.9731,315.4204 Z " fill="#000000"/><text fill="#000000" font-family="sans-serif" font-size="12" lengthAdjust="spacing" textLength="105" x="1295.5" y="316.5352">health_component</text><line style="stroke:#A80036;stroke-width:1.5;" x1="1267.5" x2="1402.5" y1="328" y2="328"/><line style="stroke:#A80036;stroke-width:1.5;" x1="1267.5" x2="1402.5" y1="336" y2="336"/><!--MD5=[9ffb1aadf0b2940b5716be1bbbeced6c]
class repr_component--><rect codeLine="82" fill="#FEFECE" filter="url(#f1k2onw2pjyw9y)" height="48" id="repr_component" style="stroke:#A80036;stroke-width:1.5;" width="127" x="1104.5" y="296"/><ellipse cx="1119.5" cy="312" fill="#ADD1B2" rx="11" ry="11" style="stroke:#A80036;stroke-width:1.0;"/><path d="M1121.9731,318.1431 Q1121.3921,318.4419 1120.7529,318.5913 Q1120.1138,318.7407 1119.4082,318.7407 Q1116.9014,318.7407 1115.5815,317.0889 Q1114.2617,315.437 1114.2617,312.3159 Q1114.2617,309.1865 1115.5815,307.5347 Q1116.9014,305.8828 1119.4082,305.8828 Q1120.1138,305.8828 1120.7612,306.0322 Q1121.4087,306.1816 1121.9731,306.4805 L1121.9731,309.2031 Q1121.3423,308.6221 1120.7488,308.3523 Q1120.1553,308.0825 1119.5244,308.0825 Q1118.1797,308.0825 1117.4949,309.1492 Q1116.8101,310.2158 1116.8101,312.3159 Q1116.8101,314.4077 1117.4949,315.4744 Q1118.1797,316.541 1119.5244,316.541 Q1120.1553,316.541 1120.7488,316.2712 Q1121.3423,316.0015 1121.9731,315.4204 Z " fill="#000000"/><text fill="#000000" font-family="sans-serif" font-size="12" lengthAdjust="spacing" textLength="95" x="1133.5" y="316.5352">repr_component</text><line style="stroke:#A80036;stroke-width:1.5;" x1="1105.5" x2="1230.5" y1="328" y2="328"/><line style="stroke:#A80036;stroke-width:1.5;" x1="1105.5" x2="1230.5" y1="336" y2="336"/><!--MD5=[02da7f7aecc82993dc76088c46b795a0]
class decision_making_component--><rect codeLine="83" fill="#FEFECE" filter="url(#f1k2onw2pjyw9y)" height="48" id="decision_making_component" style="stroke:#A80036;stroke-width:1.5;" width="197" x="1438.5" y="296"/><ellipse cx="1453.5" cy="312" fill="#ADD1B2" rx="11" ry="11" style="stroke:#A80036;stroke-width:1.0;"/><path d="M1455.9731,318.1431 Q1455.3921,318.4419 1454.7529,318.5913 Q1454.1138,318.7407 1453.4082,318.7407 Q1450.9014,318.7407 1449.5815,317.0889 Q1448.2617,315.437 1448.2617,312.3159 Q1448.2617,309.1865 1449.5815,307.5347 Q1450.9014,305.8828 1453.4082,305.8828 Q1454.1138,305.8828 1454.7612,306.0322 Q1455.4087,306.1816 1455.9731,306.4805 L1455.9731,309.2031 Q1455.3423,308.6221 1454.7488,308.3523 Q1454.1553,308.0825 1453.5244,308.0825 Q1452.1797,308.0825 1451.4949,309.1492 Q1450.8101,310.2158 1450.8101,312.3159 Q1450.8101,314.4077 1451.4949,315.4744 Q1452.1797,316.541 1453.5244,316.541 Q1454.1553,316.541 1454.7488,316.2712 Q1455.3423,316.0015 1455.9731,315.4204 Z " fill="#000000"/><text fill="#000000" font-family="sans-serif" font-size="12" lengthAdjust="spacing" textLength="165" x="1467.5" y="316.5352">decision_making_component</text><line style="stroke:#A80036;stroke-width:1.5;" x1="1439.5" x2="1634.5" y1="328" y2="328"/><line style="stroke:#A80036;stroke-width:1.5;" x1="1439.5" x2="1634.5" y1="336" y2="336"/><!--MD5=[53c00d11c91764b68aed1781a9683170]
class logging_component--><rect codeLine="84" fill="#FEFECE" filter="url(#f1k2onw2pjyw9y)" height="48" id="logging_component" style="stroke:#A80036;stroke-width:1.5;" width="143" x="758.5" y="296"/><ellipse cx="773.5" cy="312" fill="#ADD1B2" rx="11" ry="11" style="stroke:#A80036;stroke-width:1.0;"/><path d="M775.9731,318.1431 Q775.3921,318.4419 774.7529,318.5913 Q774.1138,318.7407 773.4082,318.7407 Q770.9014,318.7407 769.5815,317.0889 Q768.2617,315.437 768.2617,312.3159 Q768.2617,309.1865 769.5815,307.5347 Q770.9014,305.8828 773.4082,305.8828 Q774.1138,305.8828 774.7612,306.0322 Q775.4087,306.1816 775.9731,306.4805 L775.9731,309.2031 Q775.3423,308.6221 774.7488,308.3523 Q774.1553,308.0825 773.5244,308.0825 Q772.1797,308.0825 771.4949,309.1492 Q770.8101,310.2158 770.8101,312.3159 Q770.8101,314.4077 771.4949,315.4744 Q772.1797,316.541 773.5244,316.541 Q774.1553,316.541 774.7488,316.2712 Q775.3423,316.0015 775.9731,315.4204 Z " fill="#000000"/><text fill="#000000" font-family="sans-serif" font-size="12" lengthAdjust="spacing" textLength="111" x="787.5" y="316.5352">logging_component</text><line style="stroke:#A80036;stroke-width:1.5;" x1="759.5" x2="900.5" y1="328" y2="328"/><line style="stroke:#A80036;stroke-width:1.5;" x1="759.5" x2="900.5" y1="336" y2="336"/><!--MD5=[467568f20bbf29da492dca29e9e0779e]
class entity--><rect codeLine="87" fill="#FEFECE" filter="url(#f1k2onw2pjyw9y)" height="60.9551" id="entity" style="stroke:#A80036;stroke-width:1.5;" width="71" x="229.5" y="41"/><ellipse cx="248.1" cy="57" fill="#ADD1B2" rx="11" ry="11" style="stroke:#A80036;stroke-width:1.0;"/><path d="M250.5731,63.1431 Q249.9921,63.4419 249.3529,63.5913 Q248.7138,63.7407 248.0082,63.7407 Q245.5014,63.7407 244.1815,62.0889 Q242.8617,60.437 242.8617,57.3159 Q242.8617,54.1865 244.1815,52.5347 Q245.5014,50.8828 248.0082,50.8828 Q248.7138,50.8828 249.3612,51.0322 Q250.0087,51.1816 250.5731,51.4805 L250.5731,54.2031 Q249.9423,53.6221 249.3488,53.3523 Q248.7553,53.0825 248.1244,53.0825 Q246.7797,53.0825 246.0949,54.1492 Q245.4101,55.2158 245.4101,57.3159 Q245.4101,59.4077 246.0949,60.4744 Q246.7797,61.541 248.1244,61.541 Q248.7553,61.541 249.3488,61.2712 Q249.9423,61.0015 250.5731,60.4204 Z " fill="#000000"/><text fill="#000000" font-family="sans-serif" font-size="12" lengthAdjust="spacing" textLength="31" x="262.9" y="61.5352">entity</text><line style="stroke:#A80036;stroke-width:1.5;" x1="230.5" x2="299.5" y1="73" y2="73"/><text fill="#000000" font-family="sans-serif" font-size="11" lengthAdjust="spacing" textLength="59" x="235.5" y="87.6348">entity_id id</text><line style="stroke:#A80036;stroke-width:1.5;" x1="230.5" x2="299.5" y1="93.9551" y2="93.9551"/><!--MD5=[308de564e57c8d51c168255b0b03c096]
class player--><rect codeLine="91" fill="#FEFECE" filter="url(#f1k2onw2pjyw9y)" height="48" id="player" style="stroke:#A80036;stroke-width:1.5;" width="68" x="32" y="175"/><ellipse cx="47" cy="191" fill="#ADD1B2" rx="11" ry="11" style="stroke:#A80036;stroke-width:1.0;"/><path d="M49.4731,197.1431 Q48.8921,197.4419 48.2529,197.5913 Q47.6138,197.7407 46.9082,197.7407 Q44.4014,197.7407 43.0815,196.0889 Q41.7617,194.437 41.7617,191.3159 Q41.7617,188.1865 43.0815,186.5347 Q44.4014,184.8828 46.9082,184.8828 Q47.6138,184.8828 48.2612,185.0322 Q48.9087,185.1816 49.4731,185.4805 L49.4731,188.2031 Q48.8423,187.6221 48.2488,187.3523 Q47.6553,187.0825 47.0244,187.0825 Q45.6797,187.0825 44.9949,188.1492 Q44.3101,189.2158 44.3101,191.3159 Q44.3101,193.4077 44.9949,194.4744 Q45.6797,195.541 47.0244,195.541 Q47.6553,195.541 48.2488,195.2712 Q48.8423,195.0015 49.4731,194.4204 Z " fill="#000000"/><text fill="#000000" font-family="sans-serif" font-size="12" lengthAdjust="spacing" textLength="36" x="61" y="195.5352">player</text><line style="stroke:#A80036;stroke-width:1.5;" x1="33" x2="99" y1="207" y2="207"/><line style="stroke:#A80036;stroke-width:1.5;" x1="33" x2="99" y1="215" y2="215"/><!--MD5=[aeddb9be6e5effcf8c80cd78e8327703]
class potion--><rect codeLine="92" fill="#FEFECE" filter="url(#f1k2onw2pjyw9y)" height="48" id="potion" style="stroke:#A80036;stroke-width:1.5;" width="68" x="135" y="175"/><ellipse cx="150" cy="191" fill="#ADD1B2" rx="11" ry="11" style="stroke:#A80036;stroke-width:1.0;"/><path d="M152.4731,197.1431 Q151.8921,197.4419 151.2529,197.5913 Q150.6138,197.7407 149.9082,197.7407 Q147.4014,197.7407 146.0815,196.0889 Q144.7617,194.437 144.7617,191.3159 Q144.7617,188.1865 146.0815,186.5347 Q147.4014,184.8828 149.9082,184.8828 Q150.6138,184.8828 151.2612,185.0322 Q151.9087,185.1816 152.4731,185.4805 L152.4731,188.2031 Q151.8423,187.6221 151.2488,187.3523 Q150.6553,187.0825 150.0244,187.0825 Q148.6797,187.0825 147.9949,188.1492 Q147.3101,189.2158 147.3101,191.3159 Q147.3101,193.4077 147.9949,194.4744 Q148.6797,195.541 150.0244,195.541 Q150.6553,195.541 151.2488,195.2712 Q151.8423,195.0015 152.4731,194.4204 Z " fill="#000000"/><text fill="#000000" font-family="sans-serif" font-size="12" lengthAdjust="spacing" textLength="36" x="164" y="195.5352">potion</text><line style="stroke:#A80036;stroke-width:1.5;" x1="136" x2="202" y1="207" y2="207"/><line style="stroke:#A80036;stroke-width:1.5;" x1="136" x2="202" y1="215" y2="215"/><!--MD5=[5a3d999db1fbe9a1816e4ddb607c3c34]
class wall--><rect codeLine="93" fill="#FEFECE" filter="url(#f1k2onw2pjyw9y)" height="48" id="wall" style="stroke:#A80036;stroke-width:1.5;" width="54" x="238" y="175"/><ellipse cx="253" cy="191" fill="#ADD1B2" rx="11" ry="11" style="stroke:#A80036;stroke-width:1.0;"/><path d="M255.4731,197.1431 Q254.8921,197.4419 254.2529,197.5913 Q253.6138,197.7407 252.9082,197.7407 Q250.4014,197.7407 249.0815,196.0889 Q247.7617,194.437 247.7617,191.3159 Q247.7617,188.1865 249.0815,186.5347 Q250.4014,184.8828 252.9082,184.8828 Q253.6138,184.8828 254.2612,185.0322 Q254.9087,185.1816 255.4731,185.4805 L255.4731,188.2031 Q254.8423,187.6221 254.2488,187.3523 Q253.6553,187.0825 253.0244,187.0825 Q251.6797,187.0825 250.9949,188.1492 Q250.3101,189.2158 250.3101,191.3159 Q250.3101,193.4077 250.9949,194.4744 Q251.6797,195.541 253.0244,195.541 Q253.6553,195.541 254.2488,195.2712 Q254.8423,195.0015 255.4731,194.4204 Z " fill="#000000"/><text fill="#000000" font-family="sans-serif" font-size="12" lengthAdjust="spacing" textLength="22" x="267" y="195.5352">wall</text><line style="stroke:#A80036;stroke-width:1.5;" x1="239" x2="291" y1="207" y2="207"/><line style="stroke:#A80036;stroke-width:1.5;" x1="239" x2="291" y1="215" y2="215"/><!--MD5=[87a539c8ffda9899d7089473825d3d25]
class trap--><rect codeLine="94" fill="#FEFECE" filter="url(#f1k2onw2pjyw9y)" height="73.9102" id="trap" style="stroke:#A80036;stroke-width:1.5;" width="89" x="612.5" y="162"/><ellipse cx="642.35" cy="178" fill="#ADD1B2" rx="11" ry="11" style="stroke:#A80036;stroke-width:1.0;"/><path d="M644.8231,184.1431 Q644.2421,184.4419 643.6029,184.5913 Q642.9638,184.7407 642.2582,184.7407 Q639.7514,184.7407 638.4315,183.0889 Q637.1117,181.437 637.1117,178.3159 Q637.1117,175.1865 638.4315,173.5347 Q639.7514,171.8828 642.2582,171.8828 Q642.9638,171.8828 643.6112,172.0322 Q644.2587,172.1816 644.8231,172.4805 L644.8231,175.2031 Q644.1923,174.6221 643.5988,174.3523 Q643.0053,174.0825 642.3744,174.0825 Q641.0297,174.0825 640.3449,175.1492 Q639.6601,176.2158 639.6601,178.3159 Q639.6601,180.4077 640.3449,181.4744 Q641.0297,182.541 642.3744,182.541 Q643.0053,182.541 643.5988,182.2712 Q644.1923,182.0015 644.8231,181.4204 Z " fill="#000000"/><text fill="#000000" font-family="sans-serif" font-size="12" lengthAdjust="spacing" textLength="24" x="659.65" y="182.5352">trap</text><line style="stroke:#A80036;stroke-width:1.5;" x1="613.5" x2="700.5" y1="194" y2="194"/><text fill="#000000" font-family="sans-serif" font-size="11" lengthAdjust="spacing" textLength="59" x="618.5" y="208.6348">entity_id id</text><text fill="#000000" font-family="sans-serif" font-size="11" lengthAdjust="spacing" textLength="77" x="618.5" y="221.5898">bool disarmed</text><line style="stroke:#A80036;stroke-width:1.5;" x1="613.5" x2="700.5" y1="227.9102" y2="227.9102"/><!--MD5=[fc96a79a04ef3c1cfcfe40f206fe4a66]
class goblin--><rect codeLine="99" fill="#FEFECE" filter="url(#f1k2onw2pjyw9y)" height="48" id="goblin" style="stroke:#A80036;stroke-width:1.5;" width="67" x="510.5" y="175"/><ellipse cx="525.5" cy="191" fill="#ADD1B2" rx="11" ry="11" style="stroke:#A80036;stroke-width:1.0;"/><path d="M527.9731,197.1431 Q527.3921,197.4419 526.7529,197.5913 Q526.1138,197.7407 525.4082,197.7407 Q522.9014,197.7407 521.5815,196.0889 Q520.2617,194.437 520.2617,191.3159 Q520.2617,188.1865 521.5815,186.5347 Q522.9014,184.8828 525.4082,184.8828 Q526.1138,184.8828 526.7612,185.0322 Q527.4087,185.1816 527.9731,185.4805 L527.9731,188.2031 Q527.3423,187.6221 526.7488,187.3523 Q526.1553,187.0825 525.5244,187.0825 Q524.1797,187.0825 523.4949,188.1492 Q522.8101,189.2158 522.8101,191.3159 Q522.8101,193.4077 523.4949,194.4744 Q524.1797,195.541 525.5244,195.541 Q526.1553,195.541 526.7488,195.2712 Q527.3423,195.0015 527.9731,194.4204 Z " fill="#000000"/><text fill="#000000" font-family="sans-serif" font-size="12" lengthAdjust="spacing" textLength="35" x="539.5" y="195.5352">goblin</text><line style="stroke:#A80036;stroke-width:1.5;" x1="511.5" x2="576.5" y1="207" y2="207"/><line style="stroke:#A80036;stroke-width:1.5;" x1="511.5" x2="576.5" y1="215" y2="215"/><!--MD5=[1aadf3664c13b7c3da91f7eaf55ff76d]
class goblin_guard--><rect codeLine="100" fill="#FEFECE" filter="url(#f1k2onw2pjyw9y)" height="48" id="goblin_guard" style="stroke:#A80036;stroke-width:1.5;" width="107" x="324.5" y="296"/><ellipse cx="339.5" cy="312" fill="#ADD1B2" rx="11" ry="11" style="stroke:#A80036;stroke-width:1.0;"/><path d="M341.9731,318.1431 Q341.3921,318.4419 340.7529,318.5913 Q340.1138,318.7407 339.4082,318.7407 Q336.9014,318.7407 335.5815,317.0889 Q334.2617,315.437 334.2617,312.3159 Q334.2617,309.1865 335.5815,307.5347 Q336.9014,305.8828 339.4082,305.8828 Q340.1138,305.8828 340.7612,306.0322 Q341.4087,306.1816 341.9731,306.4805 L341.9731,309.2031 Q341.3423,308.6221 340.7488,308.3523 Q340.1553,308.0825 339.5244,308.0825 Q338.1797,308.0825 337.4949,309.1492 Q336.8101,310.2158 336.8101,312.3159 Q336.8101,314.4077 337.4949,315.4744 Q338.1797,316.541 339.5244,316.541 Q340.1553,316.541 340.7488,316.2712 Q341.3423,316.0015 341.9731,315.4204 Z " fill="#000000"/><text fill="#000000" font-family="sans-serif" font-size="12" lengthAdjust="spacing" textLength="75" x="353.5" y="316.5352">goblin_guard</text><line style="stroke:#A80036;stroke-width:1.5;" x1="325.5" x2="430.5" y1="328" y2="328"/><line style="stroke:#A80036;stroke-width:1.5;" x1="325.5" x2="430.5" y1="336" y2="336"/><!--MD5=[6eacd3346a40b1ce4fc88238f8f7c501]
class goblin_worker--><rect codeLine="101" fill="#FEFECE" filter="url(#f1k2onw2pjyw9y)" height="48" id="goblin_worker" style="stroke:#A80036;stroke-width:1.5;" width="113" x="466.5" y="296"/><ellipse cx="481.5" cy="312" fill="#ADD1B2" rx="11" ry="11" style="stroke:#A80036;stroke-width:1.0;"/><path d="M483.9731,318.1431 Q483.3921,318.4419 482.7529,318.5913 Q482.1138,318.7407 481.4082,318.7407 Q478.9014,318.7407 477.5815,317.0889 Q476.2617,315.437 476.2617,312.3159 Q476.2617,309.1865 477.5815,307.5347 Q478.9014,305.8828 481.4082,305.8828 Q482.1138,305.8828 482.7612,306.0322 Q483.4087,306.1816 483.9731,306.4805 L483.9731,309.2031 Q483.3423,308.6221 482.7488,308.3523 Q482.1553,308.0825 481.5244,308.0825 Q480.1797,308.0825 479.4949,309.1492 Q478.8101,310.2158 478.8101,312.3159 Q478.8101,314.4077 479.4949,315.4744 Q480.1797,316.541 481.5244,316.541 Q482.1553,316.541 482.7488,316.2712 Q483.3423,316.0015 483.9731,315.4204 Z " fill="#000000"/><text fill="#000000" font-family="sans-serif" font-size="12" lengthAdjust="spacing" textLength="81" x="495.5" y="316.5352">goblin_worker</text><line style="stroke:#A80036;stroke-width:1.5;" x1="467.5" x2="578.5" y1="328" y2="328"/><line style="stroke:#A80036;stroke-width:1.5;" x1="467.5" x2="578.5" y1="336" y2="336"/><!--MD5=[a21208b6289a9a764718287a49fafbeb]
reverse link entity to player--><path codeLine="108" d="M209.92,87.27 C180.71,96.87 145.33,111.48 118,132 C102.6,143.56 89.26,160.75 79.94,174.68 " fill="none" id="entity-backto-player" style="stroke:#A80036;stroke-width:1.0;"/><polygon fill="none" points="208.25,80.45,229.43,81.27,212.36,93.84,208.25,80.45" style="stroke:#A80036;stroke-width:1.0;"/><!--MD5=[a457ebe890124594414f52c17d875383]
reverse link entity to goblin--><path codeLine="109" d="M321,73.83 C373.85,77.75 452.83,90.78 507,132 C521.11,142.74 530.63,160.51 536.47,174.9 " fill="none" id="entity-backto-goblin" style="stroke:#A80036;stroke-width:1.0;"/><polygon fill="none" points="320.35,80.81,300.78,72.68,321.15,66.83,320.35,80.81" style="stroke:#A80036;stroke-width:1.0;"/><!--MD5=[5910a5b3c7e0c772202fbf474d46a854]
reverse link entity to potion--><path codeLine="110" d="M229.96,118.3 C215.3,137.47 198.89,158.93 186.79,174.74 " fill="none" id="entity-backto-potion" style="stroke:#A80036;stroke-width:1.0;"/><polygon fill="none" points="224.54,113.87,242.25,102.24,235.66,122.38,224.54,113.87" style="stroke:#A80036;stroke-width:1.0;"/><!--MD5=[9ce6c3fc7ce170f77a5b03f4776e356d]
reverse link entity to wall--><path codeLine="111" d="M265,122.4 C265,140.48 265,160.04 265,174.74 " fill="none" id="entity-backto-wall" style="stroke:#A80036;stroke-width:1.0;"/><polygon fill="none" points="258,122.24,265,102.24,272,122.24,258,122.24" style="stroke:#A80036;stroke-width:1.0;"/><!--MD5=[13352e14eb64168a9b63e6fc797a3214]
reverse link entity to trap--><path codeLine="112" d="M320.57,71.94 C389.35,73.52 508.14,83.85 596,132 C609.27,139.27 621.24,150.51 631,161.66 " fill="none" id="entity-backto-trap" style="stroke:#A80036;stroke-width:1.0;"/><polygon fill="none" points="320.42,78.94,300.51,71.7,320.59,64.94,320.42,78.94" style="stroke:#A80036;stroke-width:1.0;"/><!--MD5=[d4e053273395793694a816bde9cdcff4]
reverse link goblin to goblin_guard--><path codeLine="114" d="M507.55,235.67 C507.37,235.78 507.18,235.89 507,236 C483.8,249.54 472.35,239.72 449,253 C429.4,264.15 410.86,281.71 397.65,295.91 " fill="none" id="goblin-backto-goblin_guard" style="stroke:#A80036;stroke-width:1.0;"/><polygon fill="none" points="503.47,229.98,523.57,223.27,512.04,241.05,503.47,229.98" style="stroke:#A80036;stroke-width:1.0;"/><!--MD5=[57cd9f0a9d91903e9d47352843bce880]
reverse link goblin to goblin_worker--><path codeLine="115" d="M536.4,243.08 C533.25,260.9 529.73,280.86 527.09,295.83 " fill="none" id="goblin-backto-goblin_worker" style="stroke:#A80036;stroke-width:1.0;"/><polygon fill="none" points="529.53,241.71,539.9,223.23,543.32,244.14,529.53,241.71" style="stroke:#A80036;stroke-width:1.0;"/><!--MD5=[438853dccc13e69db2448dceb931d6ce]
reverse link player to health_component--><path codeLine="117" d="M104.27,230.04 C108.71,232.44 113.33,234.5 118,236 C237.68,274.37 1130.3,211.7 1249,253 C1273.89,261.66 1297.27,280.58 1313.36,295.96 " fill="none" id="player-backto-health_component" style="stroke:#A80036;stroke-width:1.0;"/><polygon fill="#A80036" points="92.98,223.1,95.9931,229.6514,103.1994,229.3899,100.1864,222.8385,92.98,223.1" style="stroke:#A80036;stroke-width:1.0;"/><!--MD5=[3a0e96bb6e1bbfb7857e42200c1c47cb]
reverse link player to atk_component--><path codeLine="118" d="M104.26,230.06 C108.71,232.45 113.33,234.51 118,236 C199.26,261.88 1573.08,223.22 1653,253 C1676.27,261.67 1697.42,280.6 1711.8,295.97 " fill="none" id="player-backto-atk_component" style="stroke:#A80036;stroke-width:1.0;"/><polygon fill="#A80036" points="92.98,223.13,96.003,229.6769,103.2089,229.4045,100.186,222.8576,92.98,223.13" style="stroke:#A80036;stroke-width:1.0;"/><!--MD5=[6ad5c5525ae850c25c196f9a66b718de]
reverse link player to move_component--><path codeLine="119" d="M104.28,230.01 C108.72,232.41 113.34,234.49 118,236 C202.68,263.44 835.18,223.01 919,253 C943.27,261.68 965.95,280.4 981.61,295.69 " fill="none" id="player-backto-move_component" style="stroke:#A80036;stroke-width:1.0;"/><polygon fill="#A80036" points="93,223.07,96.0131,229.6214,103.2194,229.3599,100.2064,222.8085,93,223.07" style="stroke:#A80036;stroke-width:1.0;"/><!--MD5=[d50846d4f73d980c3e622479074e8d07]
reverse link player to decision_making_component--><path codeLine="120" d="M104.26,230.05 C108.71,232.44 113.33,234.51 118,236 C255.92,280.07 1281.27,215.05 1421,253 C1452.3,261.5 1484.06,280.44 1506.42,295.86 " fill="none" id="player-backto-decision_making_component" style="stroke:#A80036;stroke-width:1.0;"/><polygon fill="#A80036" points="92.98,223.11,95.9969,229.6597,103.2031,229.394,100.1862,222.8443,92.98,223.11" style="stroke:#A80036;stroke-width:1.0;"/><!--MD5=[3d545a97f60015438a3fdde5035b1451]
reverse link player to logging_component--><path codeLine="121" d="M104.46,230.03 C108.85,232.41 113.41,234.47 118,236 C218.88,269.49 490.99,236.57 596,253 C653.97,262.07 717.97,280.75 764.37,295.93 " fill="none" id="player-backto-logging_component" style="stroke:#A80036;stroke-width:1.0;"/><polygon fill="#A80036" points="93.3,223.17,96.3192,229.7186,103.5253,229.4503,100.5061,222.9017,93.3,223.17" style="stroke:#A80036;stroke-width:1.0;"/><!--MD5=[bf9dcbe07c5d6a940f0f1e5704ff8546]
reverse link player to repr_component--><path codeLine="122" d="M104.27,230.03 C108.72,232.43 113.34,234.5 118,236 C220.5,269.01 985.87,216.01 1087,253 C1110.68,261.66 1132.53,280.37 1147.55,295.67 " fill="none" id="player-backto-repr_component" style="stroke:#A80036;stroke-width:1.0;"/><polygon fill="#A80036" points="92.99,223.09,96.0031,229.6414,103.2094,229.3799,100.1964,222.8285,92.99,223.09" style="stroke:#A80036;stroke-width:1.0;"/><!--MD5=[4cd38956723e565de0ae0501edcc09a6]
reverse link goblin to health_component--><path codeLine="124" d="M573.59,231.51 C576.28,233.27 579.09,234.8 582,236 C650.51,264.32 1179.11,228.28 1249,253 C1273.66,261.72 1296.9,280.43 1312.98,295.71 " fill="none" id="goblin-backto-health_component" style="stroke:#A80036;stroke-width:1.0;"/><polygon fill="#A80036" points="563.26,223.34,565.4783,230.2014,572.6651,230.7928,570.4468,223.9314,563.26,223.34" style="stroke:#A80036;stroke-width:1.0;"/><!--MD5=[d84acc5e93cd430c7c0cd60a1c3fb7d5]
reverse link goblin to atk_component--><path codeLine="125" d="M573.07,231.21 C575.92,233.1 578.91,234.74 582,236 C692.21,280.93 1541.58,211.18 1653,253 C1676.08,261.66 1697.1,280.38 1711.48,295.67 " fill="none" id="goblin-backto-atk_component" style="stroke:#A80036;stroke-width:1.0;"/><polygon fill="#A80036" points="562.84,223.01,565.0205,229.8835,572.204,230.5144,570.0235,223.6409,562.84,223.01" style="stroke:#A80036;stroke-width:1.0;"/><!--MD5=[34b7c68fa29f1fe90122996f64149739]
reverse link goblin to move_component--><path codeLine="126" d="M573.62,231.43 C576.31,233.2 579.11,234.76 582,236 C650.94,265.5 848.77,226.71 919,253 C943.14,262.04 965.83,280.72 981.53,295.91 " fill="none" id="goblin-backto-move_component" style="stroke:#A80036;stroke-width:1.0;"/><polygon fill="#A80036" points="563.31,223.22,565.5177,230.0849,572.7035,230.6873,570.4959,223.8225,563.31,223.22" style="stroke:#A80036;stroke-width:1.0;"/><!--MD5=[64a5d09ffa2c560b47ed99dd1b580781]
reverse link goblin to decision_making_component--><path codeLine="127" d="M573.58,231.53 C576.28,233.28 579.09,234.81 582,236 C668.26,271.39 1331.11,228.24 1421,253 C1452.27,261.61 1484.03,280.55 1506.4,295.93 " fill="none" id="goblin-backto-decision_making_component" style="stroke:#A80036;stroke-width:1.0;"/><polygon fill="#A80036" points="563.25,223.37,565.4789,230.228,572.6666,230.8083,570.4377,223.9503,563.25,223.37" style="stroke:#A80036;stroke-width:1.0;"/><!--MD5=[59a6587a3e78b72dd74df373f0465966]
reverse link goblin to repr_component--><path codeLine="128" d="M573.6,231.48 C576.29,233.24 579.1,234.79 582,236 C685.6,279.31 981.86,213.58 1087,253 C1110.61,261.85 1132.46,280.55 1147.5,295.79 " fill="none" id="goblin-backto-repr_component" style="stroke:#A80036;stroke-width:1.0;"/><polygon fill="#A80036" points="563.27,223.3,565.4824,230.1633,572.6687,230.7609,570.4563,223.8976,563.27,223.3" style="stroke:#A80036;stroke-width:1.0;"/><!--MD5=[72fb9b129dde7d30e0c57f1b04a6f8a7]
reverse link trap to atk_component--><path codeLine="130" d="M714.83,200.93 C914.26,204.44 1565.92,218.45 1653,253 C1675.92,262.09 1696.95,280.77 1711.38,295.94 " fill="none" id="trap-backto-atk_component" style="stroke:#A80036;stroke-width:1.0;"/><polygon fill="#A80036" points="701.54,200.7,707.4688,204.8049,713.5381,200.911,707.6094,196.8061,701.54,200.7" style="stroke:#A80036;stroke-width:1.0;"/><!--MD5=[796fb1e70b5b81f3dd2f8272625885d0]
@startuml entityDigram
    package "Components" #DDDDDD {
        class move_component 
        class atk_component
        class health_component
        class repr_component
        class decision_making_component
        class logging_component
    }
    package "Entities" #DDDDDD {
        class entity {
            {field} entity_id id
        }
    
        class player 
        class potion
        class wall
        class trap {
            {field} entity_id id
            {field} bool disarmed
        }
        package "Goblins" #005300{
            class goblin
            class goblin_guard
            class goblin_worker
        }
    }
    
    
    

    entity <|- - player
    entity <|- - goblin
    entity <|- - potion
    entity <|- - wall
    entity <|- - trap
    
    goblin <|- - goblin_guard
    goblin <|- - goblin_worker
    
    player *- - health_component
    player *- - atk_component
    player *- - move_component
    player *- - decision_making_component
    player *- - logging_component
    player *- - repr_component
    
    goblin *- - health_component
    goblin *- - atk_component
    goblin *- - move_component
    goblin *- - decision_making_component
    goblin *- - repr_component
    
    trap *- - atk_component
    
@enduml

PlantUML version 1.2021.5(Sun Apr 25 14:20:28 MSK 2021)
(GPL source distribution)
Java Runtime: OpenJDK Runtime Environment
JVM: OpenJDK 64-Bit Server VM
Default Encoding: UTF-8
Language: en
Country: GB
--></g></svg>