<?xml version="1.0" encoding="UTF-8" standalone="no"?><svg xmlns="http://www.w3.org/2000/svg" xmlns:xlink="http://www.w3.org/1999/xlink" contentScriptType="application/ecmascript" contentStyleType="text/css" height="254px" preserveAspectRatio="none" style="width:1191px;height:254px;" version="1.1" viewBox="0 0 1191 254" width="1191px" zoomAndPan="magnify"><defs><filter height="300%" id="f1ww1d792vpkn2" width="300%" x="-1" y="-1"><feGaussianBlur result="blurOut" stdDeviation="2.0"/><feColorMatrix in="blurOut" result="blurOut2" type="matrix" values="0 0 0 0 0 0 0 0 0 0 0 0 0 0 0 0 0 0 .4 0"/><feOffset dx="4.0" dy="4.0" in="blurOut2" result="blurOut3"/><feBlend in="SourceGraphic" in2="blurOut3" mode="normal"/></filter></defs><g><!--MD5=[925549b2a590038c554358f786205d76]
class gamestate--><rect codeLine="112" fill="#FEFECE" filter="url(#f1ww1d792vpkn2)" height="99.8203" id="gamestate" style="stroke:#A80036;stroke-width:1.5;" width="194" x="431" y="7"/><ellipse cx="493.75" cy="23" fill="#ADD1B2" rx="11" ry="11" style="stroke:#A80036;stroke-width:1.0;"/><path d="M496.2231,29.1431 Q495.6421,29.4419 495.0029,29.5913 Q494.3638,29.7407 493.6582,29.7407 Q491.1514,29.7407 489.8315,28.0889 Q488.5117,26.437 488.5117,23.3159 Q488.5117,20.1865 489.8315,18.5347 Q491.1514,16.8828 493.6582,16.8828 Q494.3638,16.8828 495.0112,17.0322 Q495.6587,17.1816 496.2231,17.4805 L496.2231,20.2031 Q495.5923,19.6221 494.9988,19.3523 Q494.4053,19.0825 493.7744,19.0825 Q492.4297,19.0825 491.7449,20.1492 Q491.0601,21.2158 491.0601,23.3159 Q491.0601,25.4077 491.7449,26.4744 Q492.4297,27.541 493.7744,27.541 Q494.4053,27.541 494.9988,27.2712 Q495.5923,27.0015 496.2231,26.4204 Z " fill="#000000"/><text fill="#000000" font-family="sans-serif" font-size="12" lengthAdjust="spacing" textLength="60" x="514.25" y="27.5352">gamestate</text><line style="stroke:#A80036;stroke-width:1.5;" x1="432" x2="624" y1="39" y2="39"/><text fill="#000000" font-family="sans-serif" font-size="11" lengthAdjust="spacing" textLength="59" x="437" y="53.6348">int lvl_num</text><text fill="#000000" font-family="sans-serif" font-size="11" lengthAdjust="spacing" textLength="83" x="437" y="66.5898">player players[]</text><text fill="#000000" font-family="sans-serif" font-size="11" lengthAdjust="spacing" textLength="158" x="437" y="79.5449">set&lt;int&gt; received_command;</text><text fill="#000000" font-family="sans-serif" font-size="11" lengthAdjust="spacing" textLength="182" x="437" y="92.5">queue&lt;int&gt;command_to_receive;</text><line style="stroke:#A80036;stroke-width:1.5;" x1="432" x2="624" y1="98.8203" y2="98.8203"/><!--MD5=[267367215e26e1382c08415608a0cb92]
class level--><rect codeLine="119" fill="#FEFECE" filter="url(#f1ww1d792vpkn2)" height="73.9102" id="level" style="stroke:#A80036;stroke-width:1.5;" width="132" x="1045" y="167"/><ellipse cx="1093.75" cy="183" fill="#ADD1B2" rx="11" ry="11" style="stroke:#A80036;stroke-width:1.0;"/><path d="M1096.2231,189.1431 Q1095.6421,189.4419 1095.0029,189.5913 Q1094.3638,189.7407 1093.6582,189.7407 Q1091.1514,189.7407 1089.8315,188.0889 Q1088.5117,186.437 1088.5117,183.3159 Q1088.5117,180.1865 1089.8315,178.5347 Q1091.1514,176.8828 1093.6582,176.8828 Q1094.3638,176.8828 1095.0112,177.0322 Q1095.6587,177.1816 1096.2231,177.4805 L1096.2231,180.2031 Q1095.5923,179.6221 1094.9988,179.3523 Q1094.4053,179.0825 1093.7744,179.0825 Q1092.4297,179.0825 1091.7449,180.1492 Q1091.0601,181.2158 1091.0601,183.3159 Q1091.0601,185.4077 1091.7449,186.4744 Q1092.4297,187.541 1093.7744,187.541 Q1094.4053,187.541 1094.9988,187.2712 Q1095.5923,187.0015 1096.2231,186.4204 Z " fill="#000000"/><text fill="#000000" font-family="sans-serif" font-size="12" lengthAdjust="spacing" textLength="26" x="1114.25" y="187.5352">level</text><line style="stroke:#A80036;stroke-width:1.5;" x1="1046" x2="1176" y1="199" y2="199"/><text fill="#000000" font-family="sans-serif" font-size="11" lengthAdjust="spacing" textLength="120" x="1051" y="213.6348">entity_type residents[]</text><text fill="#000000" font-family="sans-serif" font-size="11" lengthAdjust="spacing" textLength="49" x="1051" y="226.5898">tile tiles[]</text><line style="stroke:#A80036;stroke-width:1.5;" x1="1046" x2="1176" y1="232.9102" y2="232.9102"/><!--MD5=[f59f5ded0883775009c30875d076c332]
class tile--><rect codeLine="124" fill="#FEFECE" filter="url(#f1ww1d792vpkn2)" height="60.9551" id="tile" style="stroke:#A80036;stroke-width:1.5;" width="177" x="816.5" y="26.5"/><ellipse cx="892.25" cy="42.5" fill="#ADD1B2" rx="11" ry="11" style="stroke:#A80036;stroke-width:1.0;"/><path d="M894.7231,48.6431 Q894.1421,48.9419 893.5029,49.0913 Q892.8638,49.2407 892.1582,49.2407 Q889.6514,49.2407 888.3315,47.5889 Q887.0117,45.937 887.0117,42.8159 Q887.0117,39.6865 888.3315,38.0347 Q889.6514,36.3828 892.1582,36.3828 Q892.8638,36.3828 893.5112,36.5322 Q894.1587,36.6816 894.7231,36.9805 L894.7231,39.7031 Q894.0923,39.1221 893.4988,38.8523 Q892.9053,38.5825 892.2744,38.5825 Q890.9297,38.5825 890.2449,39.6492 Q889.5601,40.7158 889.5601,42.8159 Q889.5601,44.9077 890.2449,45.9744 Q890.9297,47.041 892.2744,47.041 Q892.9053,47.041 893.4988,46.7712 Q894.0923,46.5015 894.7231,45.9204 Z " fill="#000000"/><text fill="#000000" font-family="sans-serif" font-size="12" lengthAdjust="spacing" textLength="17" x="912.75" y="47.0352">tile</text><line style="stroke:#A80036;stroke-width:1.5;" x1="817.5" x2="992.5" y1="58.5" y2="58.5"/><text fill="#000000" font-family="sans-serif" font-size="11" lengthAdjust="spacing" textLength="165" x="822.5" y="73.1348">optional&lt;general_id&gt; resident</text><line style="stroke:#A80036;stroke-width:1.5;" x1="817.5" x2="992.5" y1="79.4551" y2="79.4551"/><!--MD5=[376b7e42d05f27a8d0fabdc0e6d97ccd]
class move_system--><rect codeLine="128" fill="#FEFECE" filter="url(#f1ww1d792vpkn2)" height="60.9551" id="move_system" style="stroke:#A80036;stroke-width:1.5;" width="188" x="7" y="173.5"/><ellipse cx="58.25" cy="189.5" fill="#ADD1B2" rx="11" ry="11" style="stroke:#A80036;stroke-width:1.0;"/><path d="M60.7231,195.6431 Q60.1421,195.9419 59.5029,196.0913 Q58.8638,196.2407 58.1582,196.2407 Q55.6514,196.2407 54.3315,194.5889 Q53.0117,192.937 53.0117,189.8159 Q53.0117,186.6865 54.3315,185.0347 Q55.6514,183.3828 58.1582,183.3828 Q58.8638,183.3828 59.5112,183.5322 Q60.1587,183.6816 60.7231,183.9805 L60.7231,186.7031 Q60.0923,186.1221 59.4988,185.8523 Q58.9053,185.5825 58.2744,185.5825 Q56.9297,185.5825 56.2449,186.6492 Q55.5601,187.7158 55.5601,189.8159 Q55.5601,191.9077 56.2449,192.9744 Q56.9297,194.041 58.2744,194.041 Q58.9053,194.041 59.4988,193.7712 Q60.0923,193.5015 60.7231,192.9204 Z " fill="#000000"/><text fill="#000000" font-family="sans-serif" font-size="12" lengthAdjust="spacing" textLength="77" x="78.75" y="194.0352">move_system</text><line style="stroke:#A80036;stroke-width:1.5;" x1="8" x2="194" y1="205.5" y2="205.5"/><line style="stroke:#A80036;stroke-width:1.5;" x1="8" x2="194" y1="213.5" y2="213.5"/><text fill="#000000" font-family="sans-serif" font-size="11" lengthAdjust="spacing" textLength="176" x="13" y="228.1348">void general_move(entity_type&amp;)</text><!--MD5=[683e4e188f5a2c54de1d2d4a1e675ab0]
class interaction_system--><rect codeLine="131" fill="#FEFECE" filter="url(#f1ww1d792vpkn2)" height="73.9102" id="interaction_system" style="stroke:#A80036;stroke-width:1.5;" width="245" x="230.5" y="167"/><ellipse cx="295.75" cy="183" fill="#ADD1B2" rx="11" ry="11" style="stroke:#A80036;stroke-width:1.0;"/><path d="M298.2231,189.1431 Q297.6421,189.4419 297.0029,189.5913 Q296.3638,189.7407 295.6582,189.7407 Q293.1514,189.7407 291.8315,188.0889 Q290.5117,186.437 290.5117,183.3159 Q290.5117,180.1865 291.8315,178.5347 Q293.1514,176.8828 295.6582,176.8828 Q296.3638,176.8828 297.0112,177.0322 Q297.6587,177.1816 298.2231,177.4805 L298.2231,180.2031 Q297.5923,179.6221 296.9988,179.3523 Q296.4053,179.0825 295.7744,179.0825 Q294.4297,179.0825 293.7449,180.1492 Q293.0601,181.2158 293.0601,183.3159 Q293.0601,185.4077 293.7449,186.4744 Q294.4297,187.541 295.7744,187.541 Q296.4053,187.541 296.9988,187.2712 Q297.5923,187.0015 298.2231,186.4204 Z " fill="#000000"/><text fill="#000000" font-family="sans-serif" font-size="12" lengthAdjust="spacing" textLength="106" x="316.25" y="187.5352">interaction_system</text><line style="stroke:#A80036;stroke-width:1.5;" x1="231.5" x2="474.5" y1="199" y2="199"/><text fill="#000000" font-family="sans-serif" font-size="11" lengthAdjust="spacing" textLength="233" x="236.5" y="213.6348">queue&lt;general_id, general_id&gt;interactions</text><line style="stroke:#A80036;stroke-width:1.5;" x1="231.5" x2="474.5" y1="219.9551" y2="219.9551"/><text fill="#000000" font-family="sans-serif" font-size="11" lengthAdjust="spacing" textLength="155" x="236.5" y="234.5898">void resolve_all_interations()</text><!--MD5=[af6a4bd86d9d64c8cf2488c9e8730c0b]
class representation_system--><rect codeLine="136" fill="#FEFECE" filter="url(#f1ww1d792vpkn2)" height="60.9551" id="representation_system" style="stroke:#A80036;stroke-width:1.5;" width="228" x="511" y="173.5"/><ellipse cx="555.75" cy="189.5" fill="#ADD1B2" rx="11" ry="11" style="stroke:#A80036;stroke-width:1.0;"/><path d="M558.2231,195.6431 Q557.6421,195.9419 557.0029,196.0913 Q556.3638,196.2407 555.6582,196.2407 Q553.1514,196.2407 551.8315,194.5889 Q550.5117,192.937 550.5117,189.8159 Q550.5117,186.6865 551.8315,185.0347 Q553.1514,183.3828 555.6582,183.3828 Q556.3638,183.3828 557.0112,183.5322 Q557.6587,183.6816 558.2231,183.9805 L558.2231,186.7031 Q557.5923,186.1221 556.9988,185.8523 Q556.4053,185.5825 555.7744,185.5825 Q554.4297,185.5825 553.7449,186.6492 Q553.0601,187.7158 553.0601,189.8159 Q553.0601,191.9077 553.7449,192.9744 Q554.4297,194.041 555.7744,194.041 Q556.4053,194.041 556.9988,193.7712 Q557.5923,193.5015 558.2231,192.9204 Z " fill="#000000"/><text fill="#000000" font-family="sans-serif" font-size="12" lengthAdjust="spacing" textLength="130" x="576.25" y="194.0352">representation_system</text><line style="stroke:#A80036;stroke-width:1.5;" x1="512" x2="738" y1="205.5" y2="205.5"/><line style="stroke:#A80036;stroke-width:1.5;" x1="512" x2="738" y1="213.5" y2="213.5"/><text fill="#000000" font-family="sans-serif" font-size="11" lengthAdjust="spacing" textLength="216" x="517" y="228.1348">void general_draw(entity_type&amp; var_ent)</text><!--MD5=[0744d0d30310caec30fa46a8f21ebc69]
class decision_making_system--><rect codeLine="140" fill="#FEFECE" filter="url(#f1ww1d792vpkn2)" height="60.9551" id="decision_making_system" style="stroke:#A80036;stroke-width:1.5;" width="235" x="774.5" y="173.5"/><ellipse cx="817.4" cy="189.5" fill="#ADD1B2" rx="11" ry="11" style="stroke:#A80036;stroke-width:1.0;"/><path d="M819.8731,195.6431 Q819.2921,195.9419 818.6529,196.0913 Q818.0138,196.2407 817.3082,196.2407 Q814.8014,196.2407 813.4815,194.5889 Q812.1617,192.937 812.1617,189.8159 Q812.1617,186.6865 813.4815,185.0347 Q814.8014,183.3828 817.3082,183.3828 Q818.0138,183.3828 818.6612,183.5322 Q819.3087,183.6816 819.8731,183.9805 L819.8731,186.7031 Q819.2423,186.1221 818.6488,185.8523 Q818.0553,185.5825 817.4244,185.5825 Q816.0797,185.5825 815.3949,186.6492 Q814.7101,187.7158 814.7101,189.8159 Q814.7101,191.9077 815.3949,192.9744 Q816.0797,194.041 817.4244,194.041 Q818.0553,194.041 818.6488,193.7712 Q819.2423,193.5015 819.8731,192.9204 Z " fill="#000000"/><text fill="#000000" font-family="sans-serif" font-size="12" lengthAdjust="spacing" textLength="141" x="837.6" y="194.0352">decision_making_system</text><line style="stroke:#A80036;stroke-width:1.5;" x1="775.5" x2="1008.5" y1="205.5" y2="205.5"/><line style="stroke:#A80036;stroke-width:1.5;" x1="775.5" x2="1008.5" y1="213.5" y2="213.5"/><text fill="#000000" font-family="sans-serif" font-size="11" lengthAdjust="spacing" textLength="223" x="780.5" y="228.1348">void make_decision(entity_type&amp; var_ent)</text><!--MD5=[233a4f25d4f38f069c1119fd03cf3e8a]
class general_system--><rect codeLine="144" fill="#FEFECE" filter="url(#f1ww1d792vpkn2)" height="60.9551" id="general_system" style="stroke:#A80036;stroke-width:1.5;" width="121" x="660.5" y="26.5"/><ellipse cx="675.5" cy="42.5" fill="#ADD1B2" rx="11" ry="11" style="stroke:#A80036;stroke-width:1.0;"/><path d="M677.9731,48.6431 Q677.3921,48.9419 676.7529,49.0913 Q676.1138,49.2407 675.4082,49.2407 Q672.9014,49.2407 671.5815,47.5889 Q670.2617,45.937 670.2617,42.8159 Q670.2617,39.6865 671.5815,38.0347 Q672.9014,36.3828 675.4082,36.3828 Q676.1138,36.3828 676.7612,36.5322 Q677.4087,36.6816 677.9731,36.9805 L677.9731,39.7031 Q677.3423,39.1221 676.7488,38.8523 Q676.1553,38.5825 675.5244,38.5825 Q674.1797,38.5825 673.4949,39.6492 Q672.8101,40.7158 672.8101,42.8159 Q672.8101,44.9077 673.4949,45.9744 Q674.1797,47.041 675.5244,47.041 Q676.1553,47.041 676.7488,46.7712 Q677.3423,46.5015 677.9731,45.9204 Z " fill="#000000"/><text fill="#000000" font-family="sans-serif" font-size="12" lengthAdjust="spacing" textLength="89" x="689.5" y="47.0352">general_system</text><line style="stroke:#A80036;stroke-width:1.5;" x1="661.5" x2="780.5" y1="58.5" y2="58.5"/><text fill="#000000" font-family="sans-serif" font-size="11" lengthAdjust="spacing" textLength="108" x="666.5" y="73.1348">gmestate* game_ptr</text><line style="stroke:#A80036;stroke-width:1.5;" x1="661.5" x2="780.5" y1="79.4551" y2="79.4551"/><!--MD5=[936b07222afe0cad8a135b3425b0faf0]
reverse link gamestate to level--><path codeLine="148" d="M637.77,105.45 C639.52,105.99 641.27,106.5 643,107 C809.06,154.55 860.99,119.27 1027,167 C1032.79,168.67 1038.72,170.63 1044.61,172.77 " fill="none" id="gamestate-backto-level" style="stroke:#A80036;stroke-width:1.0;"/><polygon fill="#A80036" points="625.27,101.39,629.7425,107.0466,636.6842,105.0937,632.2116,99.4371,625.27,101.39" style="stroke:#A80036;stroke-width:1.0;"/><!--MD5=[ef1bd5d86238546c6917320068966a87]
reverse link gamestate to move_system--><path codeLine="149" d="M418.18,95.29 C346.59,119.6 254.47,150.88 187.97,173.47 " fill="none" id="gamestate-backto-move_system" style="stroke:#A80036;stroke-width:1.0;"/><polygon fill="#A80036" points="430.84,90.99,423.8732,89.129,419.4758,94.8441,426.4426,96.7051,430.84,90.99" style="stroke:#A80036;stroke-width:1.0;"/><!--MD5=[d53aaceb69420fce8411085a8799351c]
reverse link gamestate to interaction_system--><path codeLine="150" d="M458.64,115.47 C437.75,132.78 415.42,151.28 396.69,166.8 " fill="none" id="gamestate-backto-interaction_system" style="stroke:#A80036;stroke-width:1.0;"/><polygon fill="#A80036" points="468.75,107.09,461.5779,107.8391,459.5109,114.7476,466.6829,113.9985,468.75,107.09" style="stroke:#A80036;stroke-width:1.0;"/><!--MD5=[bca10db910e9b7db0000841e2cb4addc]
reverse link gamestate to representation_system--><path codeLine="151" d="M568.24,118.15 C581,137.23 594.55,157.48 605.21,173.42 " fill="none" id="gamestate-backto-representation_system" style="stroke:#A80036;stroke-width:1.0;"/><polygon fill="#A80036" points="560.84,107.09,560.8532,114.3011,567.5147,117.0624,567.5015,109.8513,560.84,107.09" style="stroke:#A80036;stroke-width:1.0;"/><!--MD5=[fef3c393ef8624230d0056cc14425ad9]
reverse link gamestate to decision_making_system--><path codeLine="152" d="M637.21,104.64 C639.16,105.44 641.09,106.22 643,107 C699.67,129.99 764.1,154.79 813.22,173.43 " fill="none" id="gamestate-backto-decision_making_system" style="stroke:#A80036;stroke-width:1.0;"/><polygon fill="#A80036" points="625.15,99.68,629.1769,105.662,636.2475,104.2457,632.2206,98.2637,625.15,99.68" style="stroke:#A80036;stroke-width:1.0;"/><!--MD5=[ebb3dd0cb69f3db7d4ab17e1d453a717]
reverse link general_system to level--><path codeLine="154" d="M780.41,97.84 C786.55,101.19 792.82,104.32 799,107 C895.14,148.68 927.91,132.94 1027,167 C1032.85,169.01 1038.87,171.25 1044.87,173.59 " fill="none" id="general_system-backto-level" style="stroke:#A80036;stroke-width:1.0;"/><polygon fill="none" points="776.75,103.81,763.03,87.65,783.83,91.73,776.75,103.81" style="stroke:#A80036;stroke-width:1.0;"/><!--MD5=[31f9b7f5ef32235b351a39ef866f7ad6]
reverse link general_system to move_system--><path codeLine="155" d="M662.93,97.67 C656.07,101.24 649.01,104.46 642,107 C460.96,172.49 400.67,124.05 213,167 C204.84,168.87 196.42,171.06 188.03,173.43 " fill="none" id="general_system-backto-move_system" style="stroke:#A80036;stroke-width:1.0;"/><polygon fill="none" points="659.6,91.51,680.43,87.62,666.57,103.65,659.6,91.51" style="stroke:#A80036;stroke-width:1.0;"/><!--MD5=[5634ca9ac6362417856f071adcdf941b]
reverse link general_system to interaction_system--><path codeLine="156" d="M659.89,97.82 C653.94,101.11 647.92,104.23 642,107 C589.09,131.78 528.01,153.05 475.68,169.23 " fill="none" id="general_system-backto-interaction_system" style="stroke:#A80036;stroke-width:1.0;"/><polygon fill="none" points="656.52,91.68,677.32,87.62,663.59,103.76,656.52,91.68" style="stroke:#A80036;stroke-width:1.0;"/><!--MD5=[eb67ed3be740259d507306a56d11be93]
reverse link general_system to representation_system--><path codeLine="157" d="M690.27,104.41 C675.31,127.01 657.76,153.51 644.63,173.35 " fill="none" id="general_system-backto-representation_system" style="stroke:#A80036;stroke-width:1.0;"/><polygon fill="none" points="684.46,100.5,701.34,87.69,696.14,108.23,684.46,100.5" style="stroke:#A80036;stroke-width:1.0;"/><!--MD5=[d17003f7b0752fd5f6ed308c2892f653]
reverse link general_system to decision_making_system--><path codeLine="158" d="M771.44,100.77 C798.97,124.12 832.37,152.44 857.03,173.35 " fill="none" id="general_system-backto-decision_making_system" style="stroke:#A80036;stroke-width:1.0;"/><polygon fill="none" points="766.74,105.97,756.02,87.69,775.8,95.29,766.74,105.97" style="stroke:#A80036;stroke-width:1.0;"/><!--MD5=[0b2f76076e263b9d74680400c6b16847]
@startuml gameStructureDiagram

class gamestate{
    {field} int lvl_num
    {field} player players[]
    {field} set<int> received_command;
    {field} queue<int>command_to_receive;
}

class level{
    {field} entity_type residents[]
    {field} tile tiles[]
}

class tile{
    {field} optional<general_id> resident
}

class move_system{
    {method} void general_move(entity_type&)
}
class interaction_system{
    {field} queue<general_id, general_id>interactions
    {method} void resolve_all_interations()
}

class representation_system{
    {method} void general_draw(entity_type& var_ent)
}

class decision_making_system{
    {method} void make_decision(entity_type& var_ent)
}

class general_system{
    {field} gmestate* game_ptr
}

gamestate *- - level
gamestate *- - move_system
gamestate *- - interaction_system
gamestate *- - representation_system
gamestate *- - decision_making_system

general_system <|- - level
general_system <|- - move_system
general_system <|- - interaction_system
general_system <|- - representation_system
general_system <|- - decision_making_system


@enduml

PlantUML version 1.2021.5(Sun Apr 25 14:20:28 MSK 2021)
(GPL source distribution)
Java Runtime: OpenJDK Runtime Environment
JVM: OpenJDK 64-Bit Server VM
Default Encoding: UTF-8
Language: en
Country: GB
--></g></svg>