<?xml version="1.0" encoding="UTF-8" standalone="no"?><svg xmlns="http://www.w3.org/2000/svg" xmlns:xlink="http://www.w3.org/1999/xlink" contentScriptType="application/ecmascript" contentStyleType="text/css" height="267px" preserveAspectRatio="none" style="width:633px;height:267px;" version="1.1" viewBox="0 0 633 267" width="633px" zoomAndPan="magnify"><defs><filter height="300%" id="f1nxh2lt2dm7pl" width="300%" x="-1" y="-1"><feGaussianBlur result="blurOut" stdDeviation="2.0"/><feColorMatrix in="blurOut" result="blurOut2" type="matrix" values="0 0 0 0 0 0 0 0 0 0 0 0 0 0 0 0 0 0 .4 0"/><feOffset dx="4.0" dy="4.0" in="blurOut2" result="blurOut3"/><feBlend in="SourceGraphic" in2="blurOut3" mode="normal"/></filter></defs><g><!--MD5=[0b1c906c3ae1612700429be8467dc0b0]
class move_component--><rect codeLine="6" fill="#FEFECE" filter="url(#f1nxh2lt2dm7pl)" height="86.8652" id="move_component" style="stroke:#A80036;stroke-width:1.5;" width="133" x="41.5" y="7"/><ellipse cx="56.5" cy="23" fill="#ADD1B2" rx="11" ry="11" style="stroke:#A80036;stroke-width:1.0;"/><path d="M58.9731,29.1431 Q58.3921,29.4419 57.7529,29.5913 Q57.1138,29.7407 56.4082,29.7407 Q53.9014,29.7407 52.5815,28.0889 Q51.2617,26.437 51.2617,23.3159 Q51.2617,20.1865 52.5815,18.5347 Q53.9014,16.8828 56.4082,16.8828 Q57.1138,16.8828 57.7612,17.0322 Q58.4087,17.1816 58.9731,17.4805 L58.9731,20.2031 Q58.3423,19.6221 57.7488,19.3523 Q57.1553,19.0825 56.5244,19.0825 Q55.1797,19.0825 54.4949,20.1492 Q53.8101,21.2158 53.8101,23.3159 Q53.8101,25.4077 54.4949,26.4744 Q55.1797,27.541 56.5244,27.541 Q57.1553,27.541 57.7488,27.2712 Q58.3423,27.0015 58.9731,26.4204 Z " fill="#000000"/><text fill="#000000" font-family="sans-serif" font-size="12" lengthAdjust="spacing" textLength="101" x="70.5" y="27.5352">move_component</text><line style="stroke:#A80036;stroke-width:1.5;" x1="42.5" x2="173.5" y1="39" y2="39"/><text fill="#000000" font-family="sans-serif" font-size="11" lengthAdjust="spacing" textLength="24" x="47.5" y="53.6348">int x</text><text fill="#000000" font-family="sans-serif" font-size="11" lengthAdjust="spacing" textLength="23" x="47.5" y="66.5898">int y</text><text fill="#000000" font-family="sans-serif" font-size="11" lengthAdjust="spacing" textLength="94" x="47.5" y="79.5449">tile_idx residnecy</text><line style="stroke:#A80036;stroke-width:1.5;" x1="42.5" x2="173.5" y1="85.8652" y2="85.8652"/><!--MD5=[fe3b441479ec9807c34a1d6ee26910d5]
class atk_component--><rect codeLine="12" fill="#FEFECE" filter="url(#f1nxh2lt2dm7pl)" height="60.9551" id="atk_component" style="stroke:#A80036;stroke-width:1.5;" width="120" x="210" y="20"/><ellipse cx="225" cy="36" fill="#ADD1B2" rx="11" ry="11" style="stroke:#A80036;stroke-width:1.0;"/><path d="M227.4731,42.1431 Q226.8921,42.4419 226.2529,42.5913 Q225.6138,42.7407 224.9082,42.7407 Q222.4014,42.7407 221.0815,41.0889 Q219.7617,39.437 219.7617,36.3159 Q219.7617,33.1865 221.0815,31.5347 Q222.4014,29.8828 224.9082,29.8828 Q225.6138,29.8828 226.2612,30.0322 Q226.9087,30.1816 227.4731,30.4805 L227.4731,33.2031 Q226.8423,32.6221 226.2488,32.3523 Q225.6553,32.0825 225.0244,32.0825 Q223.6797,32.0825 222.9949,33.1492 Q222.3101,34.2158 222.3101,36.3159 Q222.3101,38.4077 222.9949,39.4744 Q223.6797,40.541 225.0244,40.541 Q225.6553,40.541 226.2488,40.2712 Q226.8423,40.0015 227.4731,39.4204 Z " fill="#000000"/><text fill="#000000" font-family="sans-serif" font-size="12" lengthAdjust="spacing" textLength="88" x="239" y="40.5352">atk_component</text><line style="stroke:#A80036;stroke-width:1.5;" x1="211" x2="329" y1="52" y2="52"/><text fill="#000000" font-family="sans-serif" font-size="11" lengthAdjust="spacing" textLength="59" x="216" y="66.6348">int damage</text><line style="stroke:#A80036;stroke-width:1.5;" x1="211" x2="329" y1="72.9551" y2="72.9551"/><!--MD5=[9b17b1d83b60514318931db0d24d0978]
class health_component--><rect codeLine="16" fill="#FEFECE" filter="url(#f1nxh2lt2dm7pl)" height="73.9102" id="health_component" style="stroke:#A80036;stroke-width:1.5;" width="137" x="365.5" y="13.5"/><ellipse cx="380.5" cy="29.5" fill="#ADD1B2" rx="11" ry="11" style="stroke:#A80036;stroke-width:1.0;"/><path d="M382.9731,35.6431 Q382.3921,35.9419 381.7529,36.0913 Q381.1138,36.2407 380.4082,36.2407 Q377.9014,36.2407 376.5815,34.5889 Q375.2617,32.937 375.2617,29.8159 Q375.2617,26.6865 376.5815,25.0347 Q377.9014,23.3828 380.4082,23.3828 Q381.1138,23.3828 381.7612,23.5322 Q382.4087,23.6816 382.9731,23.9805 L382.9731,26.7031 Q382.3423,26.1221 381.7488,25.8523 Q381.1553,25.5825 380.5244,25.5825 Q379.1797,25.5825 378.4949,26.6492 Q377.8101,27.7158 377.8101,29.8159 Q377.8101,31.9077 378.4949,32.9744 Q379.1797,34.041 380.5244,34.041 Q381.1553,34.041 381.7488,33.7712 Q382.3423,33.5015 382.9731,32.9204 Z " fill="#000000"/><text fill="#000000" font-family="sans-serif" font-size="12" lengthAdjust="spacing" textLength="105" x="394.5" y="34.0352">health_component</text><line style="stroke:#A80036;stroke-width:1.5;" x1="366.5" x2="501.5" y1="45.5" y2="45.5"/><text fill="#000000" font-family="sans-serif" font-size="11" lengthAdjust="spacing" textLength="50" x="371.5" y="60.1348">int health</text><line style="stroke:#A80036;stroke-width:1.5;" x1="366.5" x2="501.5" y1="66.4551" y2="66.4551"/><text fill="#000000" font-family="sans-serif" font-size="11" lengthAdjust="spacing" textLength="89" x="371.5" y="81.0898">bool is_alive(T *)</text><!--MD5=[9ffb1aadf0b2940b5716be1bbbeced6c]
class repr_component--><rect codeLine="21" fill="#FEFECE" filter="url(#f1nxh2lt2dm7pl)" height="73.9102" id="repr_component" style="stroke:#A80036;stroke-width:1.5;" width="202" x="7" y="167"/><ellipse cx="56.25" cy="183" fill="#ADD1B2" rx="11" ry="11" style="stroke:#A80036;stroke-width:1.0;"/><path d="M58.7231,189.1431 Q58.1421,189.4419 57.5029,189.5913 Q56.8638,189.7407 56.1582,189.7407 Q53.6514,189.7407 52.3315,188.0889 Q51.0117,186.437 51.0117,183.3159 Q51.0117,180.1865 52.3315,178.5347 Q53.6514,176.8828 56.1582,176.8828 Q56.8638,176.8828 57.5112,177.0322 Q58.1587,177.1816 58.7231,177.4805 L58.7231,180.2031 Q58.0923,179.6221 57.4988,179.3523 Q56.9053,179.0825 56.2744,179.0825 Q54.9297,179.0825 54.2449,180.1492 Q53.5601,181.2158 53.5601,183.3159 Q53.5601,185.4077 54.2449,186.4744 Q54.9297,187.541 56.2744,187.541 Q56.9053,187.541 57.4988,187.2712 Q58.0923,187.0015 58.7231,186.4204 Z " fill="#000000"/><text fill="#000000" font-family="sans-serif" font-size="12" lengthAdjust="spacing" textLength="95" x="76.75" y="187.5352">repr_component</text><line style="stroke:#A80036;stroke-width:1.5;" x1="8" x2="208" y1="199" y2="199"/><text fill="#000000" font-family="sans-serif" font-size="11" lengthAdjust="spacing" textLength="58" x="13" y="213.6348">string repr</text><line style="stroke:#A80036;stroke-width:1.5;" x1="8" x2="208" y1="219.9551" y2="219.9551"/><text fill="#000000" font-family="sans-serif" font-size="11" lengthAdjust="spacing" textLength="190" x="13" y="234.5898">string compute_representation(T *)</text><!--MD5=[02da7f7aecc82993dc76088c46b795a0]
class decision_making_component--><rect codeLine="26" fill="#FEFECE" filter="url(#f1nxh2lt2dm7pl)" height="99.8203" id="decision_making_component" style="stroke:#A80036;stroke-width:1.5;" width="197" x="244.5" y="154"/><ellipse cx="259.5" cy="170" fill="#ADD1B2" rx="11" ry="11" style="stroke:#A80036;stroke-width:1.0;"/><path d="M261.9731,176.1431 Q261.3921,176.4419 260.7529,176.5913 Q260.1138,176.7407 259.4082,176.7407 Q256.9014,176.7407 255.5815,175.0889 Q254.2617,173.437 254.2617,170.3159 Q254.2617,167.1865 255.5815,165.5347 Q256.9014,163.8828 259.4082,163.8828 Q260.1138,163.8828 260.7612,164.0322 Q261.4087,164.1816 261.9731,164.4805 L261.9731,167.2031 Q261.3423,166.6221 260.7488,166.3523 Q260.1553,166.0825 259.5244,166.0825 Q258.1797,166.0825 257.4949,167.1492 Q256.8101,168.2158 256.8101,170.3159 Q256.8101,172.4077 257.4949,173.4744 Q258.1797,174.541 259.5244,174.541 Q260.1553,174.541 260.7488,174.2712 Q261.3423,174.0015 261.9731,173.4204 Z " fill="#000000"/><text fill="#000000" font-family="sans-serif" font-size="12" lengthAdjust="spacing" textLength="165" x="273.5" y="174.5352">decision_making_component</text><line style="stroke:#A80036;stroke-width:1.5;" x1="245.5" x2="440.5" y1="186" y2="186"/><text fill="#000000" font-family="sans-serif" font-size="11" lengthAdjust="spacing" textLength="62" x="250.5" y="200.6348">int decision</text><text fill="#000000" font-family="sans-serif" font-size="11" lengthAdjust="spacing" textLength="68" x="250.5" y="213.5898">int eye_sight</text><text fill="#000000" font-family="sans-serif" font-size="11" lengthAdjust="spacing" textLength="116" x="250.5" y="226.5449">abs_stategy* strategy</text><line style="stroke:#A80036;stroke-width:1.5;" x1="245.5" x2="440.5" y1="232.8652" y2="232.8652"/><text fill="#000000" font-family="sans-serif" font-size="11" lengthAdjust="spacing" textLength="148" x="250.5" y="247.5">pair&lt;int, int&gt; get_velocity()</text><!--MD5=[53c00d11c91764b68aed1781a9683170]
class logging_component--><rect codeLine="33" fill="#FEFECE" filter="url(#f1nxh2lt2dm7pl)" height="60.9551" id="logging_component" style="stroke:#A80036;stroke-width:1.5;" width="143" x="476.5" y="173.5"/><ellipse cx="491.5" cy="189.5" fill="#ADD1B2" rx="11" ry="11" style="stroke:#A80036;stroke-width:1.0;"/><path d="M493.9731,195.6431 Q493.3921,195.9419 492.7529,196.0913 Q492.1138,196.2407 491.4082,196.2407 Q488.9014,196.2407 487.5815,194.5889 Q486.2617,192.937 486.2617,189.8159 Q486.2617,186.6865 487.5815,185.0347 Q488.9014,183.3828 491.4082,183.3828 Q492.1138,183.3828 492.7612,183.5322 Q493.4087,183.6816 493.9731,183.9805 L493.9731,186.7031 Q493.3423,186.1221 492.7488,185.8523 Q492.1553,185.5825 491.5244,185.5825 Q490.1797,185.5825 489.4949,186.6492 Q488.8101,187.7158 488.8101,189.8159 Q488.8101,191.9077 489.4949,192.9744 Q490.1797,194.041 491.5244,194.041 Q492.1553,194.041 492.7488,193.7712 Q493.3423,193.5015 493.9731,192.9204 Z " fill="#000000"/><text fill="#000000" font-family="sans-serif" font-size="12" lengthAdjust="spacing" textLength="111" x="505.5" y="194.0352">logging_component</text><line style="stroke:#A80036;stroke-width:1.5;" x1="477.5" x2="618.5" y1="205.5" y2="205.5"/><text fill="#000000" font-family="sans-serif" font-size="11" lengthAdjust="spacing" textLength="52" x="482.5" y="220.1348">string log</text><line style="stroke:#A80036;stroke-width:1.5;" x1="477.5" x2="618.5" y1="226.4551" y2="226.4551"/><!--MD5=[68baeb202594612b2ef4d09babaa46b6]
link move_component to atk_component--><!--MD5=[bb74c36ff4aa37d9aedd6748cba0a556]
link atk_component to health_component--><!--MD5=[a69e551f3196756f8b3e0ea8fb6a17b3]
link move_component to repr_component--><!--MD5=[ec22d1f04ef5c29cee42dfcfb42c4b87]
link repr_component to decision_making_component--><!--MD5=[c3513aa245e835bac31bc71bb2a5693a]
link decision_making_component to logging_component--><!--MD5=[c66d8500ad70fc821ce3ada6afa1e563]
@startuml entitiesDiagram
    class move_component {
        {field} int x
        {field} int y
        {field} tile_idx residnecy
    }

    class atk_component {
        {field} int damage
    }

    class health_component {
        {field} int health
        {method} bool is_alive(T *)
    }

    class repr_component {
        {field} string repr
        {method} string compute_representation(T *)
    }

    class decision_making_component {
        {field} int decision
        {field} int eye_sight
        {field} abs_stategy* strategy 
        {method} pair<int, int> get_velocity()
    }

    class logging_component {
        {field} string log
    } 
		
@enduml

PlantUML version 1.2021.5(Sun Apr 25 14:20:28 MSK 2021)
(GPL source distribution)
Java Runtime: OpenJDK Runtime Environment
JVM: OpenJDK 64-Bit Server VM
Default Encoding: UTF-8
Language: en
Country: GB
--></g></svg>