<?xml version="1.0" encoding="UTF-8" standalone="no"?><svg xmlns="http://www.w3.org/2000/svg" xmlns:xlink="http://www.w3.org/1999/xlink" contentScriptType="application/ecmascript" contentStyleType="text/css" height="278px" preserveAspectRatio="none" style="width:1459px;height:278px;" version="1.1" viewBox="0 0 1459 278" width="1459px" zoomAndPan="magnify"><defs><filter height="300%" id="f4ekgp27bsxfv" width="300%" x="-1" y="-1"><feGaussianBlur result="blurOut" stdDeviation="2.0"/><feColorMatrix in="blurOut" result="blurOut2" type="matrix" values="0 0 0 0 0 0 0 0 0 0 0 0 0 0 0 0 0 0 .4 0"/><feOffset dx="4.0" dy="4.0" in="blurOut2" result="blurOut3"/><feBlend in="SourceGraphic" in2="blurOut3" mode="normal"/></filter></defs><g><!--MD5=[97fb98bfbfcd351dcd59152c699e4421]
cluster systems--><polygon fill="#DDDDDD" filter="url(#f4ekgp27bsxfv)" points="217,6,283,6,290,28.4883,1252,28.4883,1252,271.5,217,271.5,217,6" style="stroke:#000000;stroke-width:1.5;"/><line style="stroke:#000000;stroke-width:1.5;" x1="217" x2="290" y1="28.4883" y2="28.4883"/><text fill="#000000" font-family="sans-serif" font-size="14" font-weight="bold" lengthAdjust="spacing" textLength="60" x="221" y="21.5352">systems</text><!--MD5=[376b7e42d05f27a8d0fabdc0e6d97ccd]
class move_system--><rect codeLine="154" fill="#FEFECE" filter="url(#f4ekgp27bsxfv)" height="60.9551" id="move_system" style="stroke:#A80036;stroke-width:1.5;" width="188" x="767" y="188"/><ellipse cx="818.25" cy="204" fill="#ADD1B2" rx="11" ry="11" style="stroke:#A80036;stroke-width:1.0;"/><path d="M820.7231,210.1431 Q820.1421,210.4419 819.5029,210.5913 Q818.8638,210.7407 818.1582,210.7407 Q815.6514,210.7407 814.3315,209.0889 Q813.0117,207.437 813.0117,204.3159 Q813.0117,201.1865 814.3315,199.5347 Q815.6514,197.8828 818.1582,197.8828 Q818.8638,197.8828 819.5112,198.0322 Q820.1587,198.1816 820.7231,198.4805 L820.7231,201.2031 Q820.0923,200.6221 819.4988,200.3523 Q818.9053,200.0825 818.2744,200.0825 Q816.9297,200.0825 816.2449,201.1492 Q815.5601,202.2158 815.5601,204.3159 Q815.5601,206.4077 816.2449,207.4744 Q816.9297,208.541 818.2744,208.541 Q818.9053,208.541 819.4988,208.2712 Q820.0923,208.0015 820.7231,207.4204 Z " fill="#000000"/><text fill="#000000" font-family="sans-serif" font-size="12" lengthAdjust="spacing" textLength="77" x="838.75" y="208.5352">move_system</text><line style="stroke:#A80036;stroke-width:1.5;" x1="768" x2="954" y1="220" y2="220"/><line style="stroke:#A80036;stroke-width:1.5;" x1="768" x2="954" y1="228" y2="228"/><text fill="#000000" font-family="sans-serif" font-size="11" lengthAdjust="spacing" textLength="176" x="773" y="242.6348">void general_move(entity_type&amp;)</text><!--MD5=[683e4e188f5a2c54de1d2d4a1e675ab0]
class interaction_system--><rect codeLine="157" fill="#FEFECE" filter="url(#f4ekgp27bsxfv)" height="73.9102" id="interaction_system" style="stroke:#A80036;stroke-width:1.5;" width="245" x="990.5" y="181.5"/><ellipse cx="1055.75" cy="197.5" fill="#ADD1B2" rx="11" ry="11" style="stroke:#A80036;stroke-width:1.0;"/><path d="M1058.2231,203.6431 Q1057.6421,203.9419 1057.0029,204.0913 Q1056.3638,204.2407 1055.6582,204.2407 Q1053.1514,204.2407 1051.8315,202.5889 Q1050.5117,200.937 1050.5117,197.8159 Q1050.5117,194.6865 1051.8315,193.0347 Q1053.1514,191.3828 1055.6582,191.3828 Q1056.3638,191.3828 1057.0112,191.5322 Q1057.6587,191.6816 1058.2231,191.9805 L1058.2231,194.7031 Q1057.5923,194.1221 1056.9988,193.8523 Q1056.4053,193.5825 1055.7744,193.5825 Q1054.4297,193.5825 1053.7449,194.6492 Q1053.0601,195.7158 1053.0601,197.8159 Q1053.0601,199.9077 1053.7449,200.9744 Q1054.4297,202.041 1055.7744,202.041 Q1056.4053,202.041 1056.9988,201.7712 Q1057.5923,201.5015 1058.2231,200.9204 Z " fill="#000000"/><text fill="#000000" font-family="sans-serif" font-size="12" lengthAdjust="spacing" textLength="106" x="1076.25" y="202.0352">interaction_system</text><line style="stroke:#A80036;stroke-width:1.5;" x1="991.5" x2="1234.5" y1="213.5" y2="213.5"/><text fill="#000000" font-family="sans-serif" font-size="11" lengthAdjust="spacing" textLength="233" x="996.5" y="228.1348">queue&lt;general_id, general_id&gt;interactions</text><line style="stroke:#A80036;stroke-width:1.5;" x1="991.5" x2="1234.5" y1="234.4551" y2="234.4551"/><text fill="#000000" font-family="sans-serif" font-size="11" lengthAdjust="spacing" textLength="155" x="996.5" y="249.0898">void resolve_all_interations()</text><!--MD5=[af6a4bd86d9d64c8cf2488c9e8730c0b]
class representation_system--><rect codeLine="162" fill="#FEFECE" filter="url(#f4ekgp27bsxfv)" height="60.9551" id="representation_system" style="stroke:#A80036;stroke-width:1.5;" width="228" x="233" y="188"/><ellipse cx="277.75" cy="204" fill="#ADD1B2" rx="11" ry="11" style="stroke:#A80036;stroke-width:1.0;"/><path d="M280.2231,210.1431 Q279.6421,210.4419 279.0029,210.5913 Q278.3638,210.7407 277.6582,210.7407 Q275.1514,210.7407 273.8315,209.0889 Q272.5117,207.437 272.5117,204.3159 Q272.5117,201.1865 273.8315,199.5347 Q275.1514,197.8828 277.6582,197.8828 Q278.3638,197.8828 279.0112,198.0322 Q279.6587,198.1816 280.2231,198.4805 L280.2231,201.2031 Q279.5923,200.6221 278.9988,200.3523 Q278.4053,200.0825 277.7744,200.0825 Q276.4297,200.0825 275.7449,201.1492 Q275.0601,202.2158 275.0601,204.3159 Q275.0601,206.4077 275.7449,207.4744 Q276.4297,208.541 277.7744,208.541 Q278.4053,208.541 278.9988,208.2712 Q279.5923,208.0015 280.2231,207.4204 Z " fill="#000000"/><text fill="#000000" font-family="sans-serif" font-size="12" lengthAdjust="spacing" textLength="130" x="298.25" y="208.5352">representation_system</text><line style="stroke:#A80036;stroke-width:1.5;" x1="234" x2="460" y1="220" y2="220"/><line style="stroke:#A80036;stroke-width:1.5;" x1="234" x2="460" y1="228" y2="228"/><text fill="#000000" font-family="sans-serif" font-size="11" lengthAdjust="spacing" textLength="216" x="239" y="242.6348">void general_draw(entity_type&amp; var_ent)</text><!--MD5=[0744d0d30310caec30fa46a8f21ebc69]
class decision_making_system--><rect codeLine="166" fill="#FEFECE" filter="url(#f4ekgp27bsxfv)" height="60.9551" id="decision_making_system" style="stroke:#A80036;stroke-width:1.5;" width="235" x="496.5" y="188"/><ellipse cx="539.4" cy="204" fill="#ADD1B2" rx="11" ry="11" style="stroke:#A80036;stroke-width:1.0;"/><path d="M541.8731,210.1431 Q541.2921,210.4419 540.6529,210.5913 Q540.0138,210.7407 539.3082,210.7407 Q536.8014,210.7407 535.4815,209.0889 Q534.1617,207.437 534.1617,204.3159 Q534.1617,201.1865 535.4815,199.5347 Q536.8014,197.8828 539.3082,197.8828 Q540.0138,197.8828 540.6612,198.0322 Q541.3087,198.1816 541.8731,198.4805 L541.8731,201.2031 Q541.2423,200.6221 540.6488,200.3523 Q540.0553,200.0825 539.4244,200.0825 Q538.0797,200.0825 537.3949,201.1492 Q536.7101,202.2158 536.7101,204.3159 Q536.7101,206.4077 537.3949,207.4744 Q538.0797,208.541 539.4244,208.541 Q540.0553,208.541 540.6488,208.2712 Q541.2423,208.0015 541.8731,207.4204 Z " fill="#000000"/><text fill="#000000" font-family="sans-serif" font-size="12" lengthAdjust="spacing" textLength="141" x="559.6" y="208.5352">decision_making_system</text><line style="stroke:#A80036;stroke-width:1.5;" x1="497.5" x2="730.5" y1="220" y2="220"/><line style="stroke:#A80036;stroke-width:1.5;" x1="497.5" x2="730.5" y1="228" y2="228"/><text fill="#000000" font-family="sans-serif" font-size="11" lengthAdjust="spacing" textLength="223" x="502.5" y="242.6348">void make_decision(entity_type&amp; var_ent)</text><!--MD5=[233a4f25d4f38f069c1119fd03cf3e8a]
class general_system--><rect codeLine="170" fill="#FEFECE" filter="url(#f4ekgp27bsxfv)" height="60.9551" id="general_system" style="stroke:#A80036;stroke-width:1.5;" width="121" x="553.5" y="41"/><ellipse cx="568.5" cy="57" fill="#ADD1B2" rx="11" ry="11" style="stroke:#A80036;stroke-width:1.0;"/><path d="M570.9731,63.1431 Q570.3921,63.4419 569.7529,63.5913 Q569.1138,63.7407 568.4082,63.7407 Q565.9014,63.7407 564.5815,62.0889 Q563.2617,60.437 563.2617,57.3159 Q563.2617,54.1865 564.5815,52.5347 Q565.9014,50.8828 568.4082,50.8828 Q569.1138,50.8828 569.7612,51.0322 Q570.4087,51.1816 570.9731,51.4805 L570.9731,54.2031 Q570.3423,53.6221 569.7488,53.3523 Q569.1553,53.0825 568.5244,53.0825 Q567.1797,53.0825 566.4949,54.1492 Q565.8101,55.2158 565.8101,57.3159 Q565.8101,59.4077 566.4949,60.4744 Q567.1797,61.541 568.5244,61.541 Q569.1553,61.541 569.7488,61.2712 Q570.3423,61.0015 570.9731,60.4204 Z " fill="#000000"/><text fill="#000000" font-family="sans-serif" font-size="12" lengthAdjust="spacing" textLength="89" x="582.5" y="61.5352">general_system</text><line style="stroke:#A80036;stroke-width:1.5;" x1="554.5" x2="673.5" y1="73" y2="73"/><text fill="#000000" font-family="sans-serif" font-size="11" lengthAdjust="spacing" textLength="108" x="559.5" y="87.6348">gmestate* game_ptr</text><line style="stroke:#A80036;stroke-width:1.5;" x1="554.5" x2="673.5" y1="93.9551" y2="93.9551"/><!--MD5=[925549b2a590038c554358f786205d76]
class gamestate--><rect codeLine="138" fill="#FEFECE" filter="url(#f4ekgp27bsxfv)" height="99.8203" id="gamestate" style="stroke:#A80036;stroke-width:1.5;" width="194" x="7" y="21.5"/><ellipse cx="69.75" cy="37.5" fill="#ADD1B2" rx="11" ry="11" style="stroke:#A80036;stroke-width:1.0;"/><path d="M72.2231,43.6431 Q71.6421,43.9419 71.0029,44.0913 Q70.3638,44.2407 69.6582,44.2407 Q67.1514,44.2407 65.8315,42.5889 Q64.5117,40.937 64.5117,37.8159 Q64.5117,34.6865 65.8315,33.0347 Q67.1514,31.3828 69.6582,31.3828 Q70.3638,31.3828 71.0112,31.5322 Q71.6587,31.6816 72.2231,31.9805 L72.2231,34.7031 Q71.5923,34.1221 70.9988,33.8523 Q70.4053,33.5825 69.7744,33.5825 Q68.4297,33.5825 67.7449,34.6492 Q67.0601,35.7158 67.0601,37.8159 Q67.0601,39.9077 67.7449,40.9744 Q68.4297,42.041 69.7744,42.041 Q70.4053,42.041 70.9988,41.7712 Q71.5923,41.5015 72.2231,40.9204 Z " fill="#000000"/><text fill="#000000" font-family="sans-serif" font-size="12" lengthAdjust="spacing" textLength="60" x="90.25" y="42.0352">gamestate</text><line style="stroke:#A80036;stroke-width:1.5;" x1="8" x2="200" y1="53.5" y2="53.5"/><text fill="#000000" font-family="sans-serif" font-size="11" lengthAdjust="spacing" textLength="59" x="13" y="68.1348">int lvl_num</text><text fill="#000000" font-family="sans-serif" font-size="11" lengthAdjust="spacing" textLength="83" x="13" y="81.0898">player players[]</text><text fill="#000000" font-family="sans-serif" font-size="11" lengthAdjust="spacing" textLength="158" x="13" y="94.0449">set&lt;int&gt; received_command;</text><text fill="#000000" font-family="sans-serif" font-size="11" lengthAdjust="spacing" textLength="182" x="13" y="107">queue&lt;int&gt;command_to_receive;</text><line style="stroke:#A80036;stroke-width:1.5;" x1="8" x2="200" y1="113.3203" y2="113.3203"/><!--MD5=[267367215e26e1382c08415608a0cb92]
class level--><rect codeLine="145" fill="#FEFECE" filter="url(#f4ekgp27bsxfv)" height="73.9102" id="level" style="stroke:#A80036;stroke-width:1.5;" width="132" x="52" y="181.5"/><ellipse cx="100.75" cy="197.5" fill="#ADD1B2" rx="11" ry="11" style="stroke:#A80036;stroke-width:1.0;"/><path d="M103.2231,203.6431 Q102.6421,203.9419 102.0029,204.0913 Q101.3638,204.2407 100.6582,204.2407 Q98.1514,204.2407 96.8315,202.5889 Q95.5117,200.937 95.5117,197.8159 Q95.5117,194.6865 96.8315,193.0347 Q98.1514,191.3828 100.6582,191.3828 Q101.3638,191.3828 102.0112,191.5322 Q102.6587,191.6816 103.2231,191.9805 L103.2231,194.7031 Q102.5923,194.1221 101.9988,193.8523 Q101.4053,193.5825 100.7744,193.5825 Q99.4297,193.5825 98.7449,194.6492 Q98.0601,195.7158 98.0601,197.8159 Q98.0601,199.9077 98.7449,200.9744 Q99.4297,202.041 100.7744,202.041 Q101.4053,202.041 101.9988,201.7712 Q102.5923,201.5015 103.2231,200.9204 Z " fill="#000000"/><text fill="#000000" font-family="sans-serif" font-size="12" lengthAdjust="spacing" textLength="26" x="121.25" y="202.0352">level</text><line style="stroke:#A80036;stroke-width:1.5;" x1="53" x2="183" y1="213.5" y2="213.5"/><text fill="#000000" font-family="sans-serif" font-size="11" lengthAdjust="spacing" textLength="120" x="58" y="228.1348">entity_type residents[]</text><text fill="#000000" font-family="sans-serif" font-size="11" lengthAdjust="spacing" textLength="49" x="58" y="241.0898">tile tiles[]</text><line style="stroke:#A80036;stroke-width:1.5;" x1="53" x2="183" y1="247.4102" y2="247.4102"/><!--MD5=[f59f5ded0883775009c30875d076c332]
class tile--><rect codeLine="150" fill="#FEFECE" filter="url(#f4ekgp27bsxfv)" height="60.9551" id="tile" style="stroke:#A80036;stroke-width:1.5;" width="177" x="1268.5" y="41"/><ellipse cx="1344.25" cy="57" fill="#ADD1B2" rx="11" ry="11" style="stroke:#A80036;stroke-width:1.0;"/><path d="M1346.7231,63.1431 Q1346.1421,63.4419 1345.5029,63.5913 Q1344.8638,63.7407 1344.1582,63.7407 Q1341.6514,63.7407 1340.3315,62.0889 Q1339.0117,60.437 1339.0117,57.3159 Q1339.0117,54.1865 1340.3315,52.5347 Q1341.6514,50.8828 1344.1582,50.8828 Q1344.8638,50.8828 1345.5112,51.0322 Q1346.1587,51.1816 1346.7231,51.4805 L1346.7231,54.2031 Q1346.0923,53.6221 1345.4988,53.3523 Q1344.9053,53.0825 1344.2744,53.0825 Q1342.9297,53.0825 1342.2449,54.1492 Q1341.5601,55.2158 1341.5601,57.3159 Q1341.5601,59.4077 1342.2449,60.4744 Q1342.9297,61.541 1344.2744,61.541 Q1344.9053,61.541 1345.4988,61.2712 Q1346.0923,61.0015 1346.7231,60.4204 Z " fill="#000000"/><text fill="#000000" font-family="sans-serif" font-size="12" lengthAdjust="spacing" textLength="17" x="1364.75" y="61.5352">tile</text><line style="stroke:#A80036;stroke-width:1.5;" x1="1269.5" x2="1444.5" y1="73" y2="73"/><text fill="#000000" font-family="sans-serif" font-size="11" lengthAdjust="spacing" textLength="165" x="1274.5" y="87.6348">optional&lt;general_id&gt; resident</text><line style="stroke:#A80036;stroke-width:1.5;" x1="1269.5" x2="1444.5" y1="93.9551" y2="93.9551"/><!--MD5=[936b07222afe0cad8a135b3425b0faf0]
reverse link gamestate to level--><path codeLine="176" d="M110.01,134.72 C111.54,150.62 113.14,167.19 114.5,181.3 " fill="none" id="gamestate-backto-level" style="stroke:#A80036;stroke-width:1.0;"/><polygon fill="#A80036" points="108.74,121.59,105.3388,127.9486,109.9001,133.5338,113.3013,127.1752,108.74,121.59" style="stroke:#A80036;stroke-width:1.0;"/><!--MD5=[ef1bd5d86238546c6917320068966a87]
reverse link gamestate to move_system--><path codeLine="177" d="M213.53,120.55 C214.69,120.88 215.85,121.19 217,121.5 C446.9,182.84 516.37,131.51 749,181.5 C757.49,183.32 766.24,185.53 774.94,187.95 " fill="none" id="gamestate-backto-move_system" style="stroke:#A80036;stroke-width:1.0;"/><polygon fill="#A80036" points="201.05,116.72,205.6124,122.3043,212.5219,120.2407,207.9595,114.6564,201.05,116.72" style="stroke:#A80036;stroke-width:1.0;"/><!--MD5=[d53aaceb69420fce8411085a8799351c]
reverse link gamestate to interaction_system--><path codeLine="178" d="M214.08,120.75 C215.05,121.01 216.03,121.26 217,121.5 C544.06,202.99 640.55,125.99 973,181.5 C978.69,182.45 984.49,183.52 990.34,184.68 " fill="none" id="gamestate-backto-interaction_system" style="stroke:#A80036;stroke-width:1.0;"/><polygon fill="#A80036" points="201.31,117.03,205.9553,122.5455,212.8332,120.3789,208.1879,114.8633,201.31,117.03" style="stroke:#A80036;stroke-width:1.0;"/><!--MD5=[bca10db910e9b7db0000841e2cb4addc]
reverse link gamestate to representation_system--><path codeLine="179" d="M197.66,128.39 C231.66,148.67 268.72,170.79 297.42,187.92 " fill="none" id="gamestate-backto-representation_system" style="stroke:#A80036;stroke-width:1.0;"/><polygon fill="#A80036" points="186.27,121.59,189.3766,128.0976,196.5785,127.7329,193.4719,121.2253,186.27,121.59" style="stroke:#A80036;stroke-width:1.0;"/><!--MD5=[fef3c393ef8624230d0056cc14425ad9]
reverse link gamestate to decision_making_system--><path codeLine="180" d="M213.59,120.36 C214.73,120.75 215.87,121.13 217,121.5 C330.5,158.75 363.05,152.77 479,181.5 C487.36,183.57 495.99,185.76 504.67,187.99 " fill="none" id="gamestate-backto-decision_making_system" style="stroke:#A80036;stroke-width:1.0;"/><polygon fill="#A80036" points="201.26,116,205.5856,121.7697,212.5752,119.9959,208.2495,114.2262,201.26,116" style="stroke:#A80036;stroke-width:1.0;"/><!--MD5=[ebb3dd0cb69f3db7d4ab17e1d453a717]
reverse link general_system to level--><path codeLine="182" d="M533.93,92.46 C453.35,113.01 325.77,146.85 217,181.5 C206.28,184.91 195,188.76 184.05,192.65 " fill="none" id="general_system-backto-level" style="stroke:#A80036;stroke-width:1.0;"/><polygon fill="none" points="532.25,85.66,553.36,87.52,535.7,99.23,532.25,85.66" style="stroke:#A80036;stroke-width:1.0;"/><!--MD5=[31f9b7f5ef32235b351a39ef866f7ad6]
reverse link general_system to move_system--><path codeLine="183" d="M681.58,112.18 C722.25,136.05 773.17,165.94 810.37,187.78 " fill="none" id="general_system-backto-move_system" style="stroke:#A80036;stroke-width:1.0;"/><polygon fill="none" points="677.99,118.18,664.28,102.02,685.07,106.11,677.99,118.18" style="stroke:#A80036;stroke-width:1.0;"/><!--MD5=[5634ca9ac6362417856f071adcdf941b]
reverse link general_system to interaction_system--><path codeLine="184" d="M694.02,95.75 C773.98,118.99 897.98,155.02 990.37,181.87 " fill="none" id="general_system-backto-interaction_system" style="stroke:#A80036;stroke-width:1.0;"/><polygon fill="none" points="691.94,102.44,674.69,90.13,695.85,88.99,691.94,102.44" style="stroke:#A80036;stroke-width:1.0;"/><!--MD5=[eb67ed3be740259d507306a56d11be93]
reverse link general_system to representation_system--><path codeLine="185" d="M541.83,111.69 C497.72,135.65 442.21,165.79 401.73,187.78 " fill="none" id="general_system-backto-representation_system" style="stroke:#A80036;stroke-width:1.0;"/><polygon fill="none" points="538.73,105.41,559.65,102.02,545.41,117.71,538.73,105.41" style="stroke:#A80036;stroke-width:1.0;"/><!--MD5=[d17003f7b0752fd5f6ed308c2892f653]
reverse link general_system to decision_making_system--><path codeLine="186" d="M614,122.28 C614,144.1 614,168.99 614,187.85 " fill="none" id="general_system-backto-decision_making_system" style="stroke:#A80036;stroke-width:1.0;"/><polygon fill="none" points="607,122.19,614,102.19,621,122.19,607,122.19" style="stroke:#A80036;stroke-width:1.0;"/><!--MD5=[ba5a6c8cac888b2ff8f3c51b747a73b3]
@startuml gameStructureDiagram

class gamestate{
    {field} int lvl_num
    {field} player players[]
    {field} set<int> received_command;
    {field} queue<int>command_to_receive;
}

class level{
    {field} entity_type residents[]
    {field} tile tiles[]
}

class tile{
    {field} optional<general_id> resident
}
package "systems" #DDDDDD{
    class move_system{
        {method} void general_move(entity_type&)
    }
    class interaction_system{
        {field} queue<general_id, general_id>interactions
        {method} void resolve_all_interations()
    }
    
    class representation_system{
        {method} void general_draw(entity_type& var_ent)
    }
    
    class decision_making_system{
        {method} void make_decision(entity_type& var_ent)
    }
    
    class general_system{
        {field} gmestate* game_ptr
    }
}


gamestate *- - level
gamestate *- - move_system
gamestate *- - interaction_system
gamestate *- - representation_system
gamestate *- - decision_making_system

general_system <|- - level
general_system <|- - move_system
general_system <|- - interaction_system
general_system <|- - representation_system
general_system <|- - decision_making_system


@enduml

PlantUML version 1.2021.5(Sun Apr 25 14:20:28 MSK 2021)
(GPL source distribution)
Java Runtime: OpenJDK Runtime Environment
JVM: OpenJDK 64-Bit Server VM
Default Encoding: UTF-8
Language: en
Country: GB
--></g></svg>