<?xml version="1.0" encoding="UTF-8" standalone="no"?><svg xmlns="http://www.w3.org/2000/svg" xmlns:xlink="http://www.w3.org/1999/xlink" contentScriptType="application/ecmascript" contentStyleType="text/css" height="298px" preserveAspectRatio="none" style="width:1238px;height:298px;" version="1.1" viewBox="0 0 1238 298" width="1238px" zoomAndPan="magnify"><defs><filter height="300%" id="f6jvwc54cho4i" width="300%" x="-1" y="-1"><feGaussianBlur result="blurOut" stdDeviation="2.0"/><feColorMatrix in="blurOut" result="blurOut2" type="matrix" values="0 0 0 0 0 0 0 0 0 0 0 0 0 0 0 0 0 0 .4 0"/><feOffset dx="4.0" dy="4.0" in="blurOut2" result="blurOut3"/><feBlend in="SourceGraphic" in2="blurOut3" mode="normal"/></filter></defs><g><path d="M6,131.5 L6,172.1211 A0,0 0 0 0 6,172.1211 L372,172.1211 A0,0 0 0 0 372,172.1211 L372,141.5 L362,131.5 L261.64,131.5 L547.34,48.68 L253.64,131.5 L6,131.5 A0,0 0 0 0 6,131.5 " fill="#FBFB77" filter="url(#f6jvwc54cho4i)" style="stroke:#A80036;stroke-width:1.0;"/><path d="M362,131.5 L362,141.5 L372,141.5 L362,131.5 " fill="#FBFB77" style="stroke:#A80036;stroke-width:1.0;"/><text fill="#000000" font-family="sans-serif" font-size="13" lengthAdjust="spacing" textLength="338" x="12" y="149.0684">entity  is not abstract class it is used for convinience.</text><text fill="#000000" font-family="sans-serif" font-size="13" lengthAdjust="spacing" textLength="341" x="16" y="164.3789">In principle there might be entity that do not extend it</text><!--MD5=[467568f20bbf29da492dca29e9e0779e]
class entity--><rect codeLine="67" fill="#FEFECE" filter="url(#f6jvwc54cho4i)" height="60.9551" id="entity" style="stroke:#A80036;stroke-width:1.5;" width="71" x="547.5" y="7"/><ellipse cx="566.1" cy="23" fill="#ADD1B2" rx="11" ry="11" style="stroke:#A80036;stroke-width:1.0;"/><path d="M568.5731,29.1431 Q567.9921,29.4419 567.3529,29.5913 Q566.7138,29.7407 566.0082,29.7407 Q563.5014,29.7407 562.1815,28.0889 Q560.8617,26.437 560.8617,23.3159 Q560.8617,20.1865 562.1815,18.5347 Q563.5014,16.8828 566.0082,16.8828 Q566.7138,16.8828 567.3612,17.0322 Q568.0087,17.1816 568.5731,17.4805 L568.5731,20.2031 Q567.9423,19.6221 567.3488,19.3523 Q566.7553,19.0825 566.1244,19.0825 Q564.7797,19.0825 564.0949,20.1492 Q563.4101,21.2158 563.4101,23.3159 Q563.4101,25.4077 564.0949,26.4744 Q564.7797,27.541 566.1244,27.541 Q566.7553,27.541 567.3488,27.2712 Q567.9423,27.0015 568.5731,26.4204 Z " fill="#000000"/><text fill="#000000" font-family="sans-serif" font-size="12" lengthAdjust="spacing" textLength="31" x="580.9" y="27.5352">entity</text><line style="stroke:#A80036;stroke-width:1.5;" x1="548.5" x2="617.5" y1="39" y2="39"/><text fill="#000000" font-family="sans-serif" font-size="11" lengthAdjust="spacing" textLength="59" x="553.5" y="53.6348">entity_id id</text><line style="stroke:#A80036;stroke-width:1.5;" x1="548.5" x2="617.5" y1="59.9551" y2="59.9551"/><!--MD5=[308de564e57c8d51c168255b0b03c096]
class player--><rect codeLine="72" fill="#FEFECE" filter="url(#f6jvwc54cho4i)" height="48" id="player" style="stroke:#A80036;stroke-width:1.5;" width="68" x="601" y="128"/><ellipse cx="616" cy="144" fill="#ADD1B2" rx="11" ry="11" style="stroke:#A80036;stroke-width:1.0;"/><path d="M618.4731,150.1431 Q617.8921,150.4419 617.2529,150.5913 Q616.6138,150.7407 615.9082,150.7407 Q613.4014,150.7407 612.0815,149.0889 Q610.7617,147.437 610.7617,144.3159 Q610.7617,141.1865 612.0815,139.5347 Q613.4014,137.8828 615.9082,137.8828 Q616.6138,137.8828 617.2612,138.0322 Q617.9087,138.1816 618.4731,138.4805 L618.4731,141.2031 Q617.8423,140.6221 617.2488,140.3523 Q616.6553,140.0825 616.0244,140.0825 Q614.6797,140.0825 613.9949,141.1492 Q613.3101,142.2158 613.3101,144.3159 Q613.3101,146.4077 613.9949,147.4744 Q614.6797,148.541 616.0244,148.541 Q616.6553,148.541 617.2488,148.2712 Q617.8423,148.0015 618.4731,147.4204 Z " fill="#000000"/><text fill="#000000" font-family="sans-serif" font-size="12" lengthAdjust="spacing" textLength="36" x="630" y="148.5352">player</text><line style="stroke:#A80036;stroke-width:1.5;" x1="602" x2="668" y1="160" y2="160"/><line style="stroke:#A80036;stroke-width:1.5;" x1="602" x2="668" y1="168" y2="168"/><!--MD5=[aeddb9be6e5effcf8c80cd78e8327703]
class potion--><rect codeLine="73" fill="#FEFECE" filter="url(#f6jvwc54cho4i)" height="48" id="potion" style="stroke:#A80036;stroke-width:1.5;" width="68" x="704" y="128"/><ellipse cx="719" cy="144" fill="#ADD1B2" rx="11" ry="11" style="stroke:#A80036;stroke-width:1.0;"/><path d="M721.4731,150.1431 Q720.8921,150.4419 720.2529,150.5913 Q719.6138,150.7407 718.9082,150.7407 Q716.4014,150.7407 715.0815,149.0889 Q713.7617,147.437 713.7617,144.3159 Q713.7617,141.1865 715.0815,139.5347 Q716.4014,137.8828 718.9082,137.8828 Q719.6138,137.8828 720.2612,138.0322 Q720.9087,138.1816 721.4731,138.4805 L721.4731,141.2031 Q720.8423,140.6221 720.2488,140.3523 Q719.6553,140.0825 719.0244,140.0825 Q717.6797,140.0825 716.9949,141.1492 Q716.3101,142.2158 716.3101,144.3159 Q716.3101,146.4077 716.9949,147.4744 Q717.6797,148.541 719.0244,148.541 Q719.6553,148.541 720.2488,148.2712 Q720.8423,148.0015 721.4731,147.4204 Z " fill="#000000"/><text fill="#000000" font-family="sans-serif" font-size="12" lengthAdjust="spacing" textLength="36" x="733" y="148.5352">potion</text><line style="stroke:#A80036;stroke-width:1.5;" x1="705" x2="771" y1="160" y2="160"/><line style="stroke:#A80036;stroke-width:1.5;" x1="705" x2="771" y1="168" y2="168"/><!--MD5=[fc96a79a04ef3c1cfcfe40f206fe4a66]
class goblin--><rect codeLine="74" fill="#FEFECE" filter="url(#f6jvwc54cho4i)" height="48" id="goblin" style="stroke:#A80036;stroke-width:1.5;" width="67" x="498.5" y="128"/><ellipse cx="513.5" cy="144" fill="#ADD1B2" rx="11" ry="11" style="stroke:#A80036;stroke-width:1.0;"/><path d="M515.9731,150.1431 Q515.3921,150.4419 514.7529,150.5913 Q514.1138,150.7407 513.4082,150.7407 Q510.9014,150.7407 509.5815,149.0889 Q508.2617,147.437 508.2617,144.3159 Q508.2617,141.1865 509.5815,139.5347 Q510.9014,137.8828 513.4082,137.8828 Q514.1138,137.8828 514.7612,138.0322 Q515.4087,138.1816 515.9731,138.4805 L515.9731,141.2031 Q515.3423,140.6221 514.7488,140.3523 Q514.1553,140.0825 513.5244,140.0825 Q512.1797,140.0825 511.4949,141.1492 Q510.8101,142.2158 510.8101,144.3159 Q510.8101,146.4077 511.4949,147.4744 Q512.1797,148.541 513.5244,148.541 Q514.1553,148.541 514.7488,148.2712 Q515.3423,148.0015 515.9731,147.4204 Z " fill="#000000"/><text fill="#000000" font-family="sans-serif" font-size="12" lengthAdjust="spacing" textLength="35" x="527.5" y="148.5352">goblin</text><line style="stroke:#A80036;stroke-width:1.5;" x1="499.5" x2="564.5" y1="160" y2="160"/><line style="stroke:#A80036;stroke-width:1.5;" x1="499.5" x2="564.5" y1="168" y2="168"/><!--MD5=[5a3d999db1fbe9a1816e4ddb607c3c34]
class wall--><rect codeLine="75" fill="#FEFECE" filter="url(#f6jvwc54cho4i)" height="48" id="wall" style="stroke:#A80036;stroke-width:1.5;" width="54" x="807" y="128"/><ellipse cx="822" cy="144" fill="#ADD1B2" rx="11" ry="11" style="stroke:#A80036;stroke-width:1.0;"/><path d="M824.4731,150.1431 Q823.8921,150.4419 823.2529,150.5913 Q822.6138,150.7407 821.9082,150.7407 Q819.4014,150.7407 818.0815,149.0889 Q816.7617,147.437 816.7617,144.3159 Q816.7617,141.1865 818.0815,139.5347 Q819.4014,137.8828 821.9082,137.8828 Q822.6138,137.8828 823.2612,138.0322 Q823.9087,138.1816 824.4731,138.4805 L824.4731,141.2031 Q823.8423,140.6221 823.2488,140.3523 Q822.6553,140.0825 822.0244,140.0825 Q820.6797,140.0825 819.9949,141.1492 Q819.3101,142.2158 819.3101,144.3159 Q819.3101,146.4077 819.9949,147.4744 Q820.6797,148.541 822.0244,148.541 Q822.6553,148.541 823.2488,148.2712 Q823.8423,148.0015 824.4731,147.4204 Z " fill="#000000"/><text fill="#000000" font-family="sans-serif" font-size="12" lengthAdjust="spacing" textLength="22" x="836" y="148.5352">wall</text><line style="stroke:#A80036;stroke-width:1.5;" x1="808" x2="860" y1="160" y2="160"/><line style="stroke:#A80036;stroke-width:1.5;" x1="808" x2="860" y1="168" y2="168"/><!--MD5=[0b1c906c3ae1612700429be8467dc0b0]
class move_component--><rect codeLine="77" fill="#FEFECE" filter="url(#f6jvwc54cho4i)" height="48" id="move_component" style="stroke:#A80036;stroke-width:1.5;" width="133" x="347.5" y="236"/><ellipse cx="362.5" cy="252" fill="#ADD1B2" rx="11" ry="11" style="stroke:#A80036;stroke-width:1.0;"/><path d="M364.9731,258.1431 Q364.3921,258.4419 363.7529,258.5913 Q363.1138,258.7407 362.4082,258.7407 Q359.9014,258.7407 358.5815,257.0889 Q357.2617,255.437 357.2617,252.3159 Q357.2617,249.1865 358.5815,247.5347 Q359.9014,245.8828 362.4082,245.8828 Q363.1138,245.8828 363.7612,246.0322 Q364.4087,246.1816 364.9731,246.4805 L364.9731,249.2031 Q364.3423,248.6221 363.7488,248.3523 Q363.1553,248.0825 362.5244,248.0825 Q361.1797,248.0825 360.4949,249.1492 Q359.8101,250.2158 359.8101,252.3159 Q359.8101,254.4077 360.4949,255.4744 Q361.1797,256.541 362.5244,256.541 Q363.1553,256.541 363.7488,256.2712 Q364.3423,256.0015 364.9731,255.4204 Z " fill="#000000"/><text fill="#000000" font-family="sans-serif" font-size="12" lengthAdjust="spacing" textLength="101" x="376.5" y="256.5352">move_component</text><line style="stroke:#A80036;stroke-width:1.5;" x1="348.5" x2="479.5" y1="268" y2="268"/><line style="stroke:#A80036;stroke-width:1.5;" x1="348.5" x2="479.5" y1="276" y2="276"/><!--MD5=[fe3b441479ec9807c34a1d6ee26910d5]
class atk_component--><rect codeLine="78" fill="#FEFECE" filter="url(#f6jvwc54cho4i)" height="48" id="atk_component" style="stroke:#A80036;stroke-width:1.5;" width="120" x="192" y="236"/><ellipse cx="207" cy="252" fill="#ADD1B2" rx="11" ry="11" style="stroke:#A80036;stroke-width:1.0;"/><path d="M209.4731,258.1431 Q208.8921,258.4419 208.2529,258.5913 Q207.6138,258.7407 206.9082,258.7407 Q204.4014,258.7407 203.0815,257.0889 Q201.7617,255.437 201.7617,252.3159 Q201.7617,249.1865 203.0815,247.5347 Q204.4014,245.8828 206.9082,245.8828 Q207.6138,245.8828 208.2612,246.0322 Q208.9087,246.1816 209.4731,246.4805 L209.4731,249.2031 Q208.8423,248.6221 208.2488,248.3523 Q207.6553,248.0825 207.0244,248.0825 Q205.6797,248.0825 204.9949,249.1492 Q204.3101,250.2158 204.3101,252.3159 Q204.3101,254.4077 204.9949,255.4744 Q205.6797,256.541 207.0244,256.541 Q207.6553,256.541 208.2488,256.2712 Q208.8423,256.0015 209.4731,255.4204 Z " fill="#000000"/><text fill="#000000" font-family="sans-serif" font-size="12" lengthAdjust="spacing" textLength="88" x="221" y="256.5352">atk_component</text><line style="stroke:#A80036;stroke-width:1.5;" x1="193" x2="311" y1="268" y2="268"/><line style="stroke:#A80036;stroke-width:1.5;" x1="193" x2="311" y1="276" y2="276"/><!--MD5=[9b17b1d83b60514318931db0d24d0978]
class health_component--><rect codeLine="79" fill="#FEFECE" filter="url(#f6jvwc54cho4i)" height="48" id="health_component" style="stroke:#A80036;stroke-width:1.5;" width="137" x="515.5" y="236"/><ellipse cx="530.5" cy="252" fill="#ADD1B2" rx="11" ry="11" style="stroke:#A80036;stroke-width:1.0;"/><path d="M532.9731,258.1431 Q532.3921,258.4419 531.7529,258.5913 Q531.1138,258.7407 530.4082,258.7407 Q527.9014,258.7407 526.5815,257.0889 Q525.2617,255.437 525.2617,252.3159 Q525.2617,249.1865 526.5815,247.5347 Q527.9014,245.8828 530.4082,245.8828 Q531.1138,245.8828 531.7612,246.0322 Q532.4087,246.1816 532.9731,246.4805 L532.9731,249.2031 Q532.3423,248.6221 531.7488,248.3523 Q531.1553,248.0825 530.5244,248.0825 Q529.1797,248.0825 528.4949,249.1492 Q527.8101,250.2158 527.8101,252.3159 Q527.8101,254.4077 528.4949,255.4744 Q529.1797,256.541 530.5244,256.541 Q531.1553,256.541 531.7488,256.2712 Q532.3423,256.0015 532.9731,255.4204 Z " fill="#000000"/><text fill="#000000" font-family="sans-serif" font-size="12" lengthAdjust="spacing" textLength="105" x="544.5" y="256.5352">health_component</text><line style="stroke:#A80036;stroke-width:1.5;" x1="516.5" x2="651.5" y1="268" y2="268"/><line style="stroke:#A80036;stroke-width:1.5;" x1="516.5" x2="651.5" y1="276" y2="276"/><!--MD5=[9ffb1aadf0b2940b5716be1bbbeced6c]
class repr_component--><rect codeLine="80" fill="#FEFECE" filter="url(#f6jvwc54cho4i)" height="48" id="repr_component" style="stroke:#A80036;stroke-width:1.5;" width="127" x="687.5" y="236"/><ellipse cx="702.5" cy="252" fill="#ADD1B2" rx="11" ry="11" style="stroke:#A80036;stroke-width:1.0;"/><path d="M704.9731,258.1431 Q704.3921,258.4419 703.7529,258.5913 Q703.1138,258.7407 702.4082,258.7407 Q699.9014,258.7407 698.5815,257.0889 Q697.2617,255.437 697.2617,252.3159 Q697.2617,249.1865 698.5815,247.5347 Q699.9014,245.8828 702.4082,245.8828 Q703.1138,245.8828 703.7612,246.0322 Q704.4087,246.1816 704.9731,246.4805 L704.9731,249.2031 Q704.3423,248.6221 703.7488,248.3523 Q703.1553,248.0825 702.5244,248.0825 Q701.1797,248.0825 700.4949,249.1492 Q699.8101,250.2158 699.8101,252.3159 Q699.8101,254.4077 700.4949,255.4744 Q701.1797,256.541 702.5244,256.541 Q703.1553,256.541 703.7488,256.2712 Q704.3423,256.0015 704.9731,255.4204 Z " fill="#000000"/><text fill="#000000" font-family="sans-serif" font-size="12" lengthAdjust="spacing" textLength="95" x="716.5" y="256.5352">repr_component</text><line style="stroke:#A80036;stroke-width:1.5;" x1="688.5" x2="813.5" y1="268" y2="268"/><line style="stroke:#A80036;stroke-width:1.5;" x1="688.5" x2="813.5" y1="276" y2="276"/><!--MD5=[02da7f7aecc82993dc76088c46b795a0]
class decision_making_component--><rect codeLine="81" fill="#FEFECE" filter="url(#f6jvwc54cho4i)" height="48" id="decision_making_component" style="stroke:#A80036;stroke-width:1.5;" width="197" x="849.5" y="236"/><ellipse cx="864.5" cy="252" fill="#ADD1B2" rx="11" ry="11" style="stroke:#A80036;stroke-width:1.0;"/><path d="M866.9731,258.1431 Q866.3921,258.4419 865.7529,258.5913 Q865.1138,258.7407 864.4082,258.7407 Q861.9014,258.7407 860.5815,257.0889 Q859.2617,255.437 859.2617,252.3159 Q859.2617,249.1865 860.5815,247.5347 Q861.9014,245.8828 864.4082,245.8828 Q865.1138,245.8828 865.7612,246.0322 Q866.4087,246.1816 866.9731,246.4805 L866.9731,249.2031 Q866.3423,248.6221 865.7488,248.3523 Q865.1553,248.0825 864.5244,248.0825 Q863.1797,248.0825 862.4949,249.1492 Q861.8101,250.2158 861.8101,252.3159 Q861.8101,254.4077 862.4949,255.4744 Q863.1797,256.541 864.5244,256.541 Q865.1553,256.541 865.7488,256.2712 Q866.3423,256.0015 866.9731,255.4204 Z " fill="#000000"/><text fill="#000000" font-family="sans-serif" font-size="12" lengthAdjust="spacing" textLength="165" x="878.5" y="256.5352">decision_making_component</text><line style="stroke:#A80036;stroke-width:1.5;" x1="850.5" x2="1045.5" y1="268" y2="268"/><line style="stroke:#A80036;stroke-width:1.5;" x1="850.5" x2="1045.5" y1="276" y2="276"/><!--MD5=[53c00d11c91764b68aed1781a9683170]
class logging_component--><rect codeLine="82" fill="#FEFECE" filter="url(#f6jvwc54cho4i)" height="48" id="logging_component" style="stroke:#A80036;stroke-width:1.5;" width="143" x="1081.5" y="236"/><ellipse cx="1096.5" cy="252" fill="#ADD1B2" rx="11" ry="11" style="stroke:#A80036;stroke-width:1.0;"/><path d="M1098.9731,258.1431 Q1098.3921,258.4419 1097.7529,258.5913 Q1097.1138,258.7407 1096.4082,258.7407 Q1093.9014,258.7407 1092.5815,257.0889 Q1091.2617,255.437 1091.2617,252.3159 Q1091.2617,249.1865 1092.5815,247.5347 Q1093.9014,245.8828 1096.4082,245.8828 Q1097.1138,245.8828 1097.7612,246.0322 Q1098.4087,246.1816 1098.9731,246.4805 L1098.9731,249.2031 Q1098.3423,248.6221 1097.7488,248.3523 Q1097.1553,248.0825 1096.5244,248.0825 Q1095.1797,248.0825 1094.4949,249.1492 Q1093.8101,250.2158 1093.8101,252.3159 Q1093.8101,254.4077 1094.4949,255.4744 Q1095.1797,256.541 1096.5244,256.541 Q1097.1553,256.541 1097.7488,256.2712 Q1098.3423,256.0015 1098.9731,255.4204 Z " fill="#000000"/><text fill="#000000" font-family="sans-serif" font-size="12" lengthAdjust="spacing" textLength="111" x="1110.5" y="256.5352">logging_component</text><line style="stroke:#A80036;stroke-width:1.5;" x1="1082.5" x2="1223.5" y1="268" y2="268"/><line style="stroke:#A80036;stroke-width:1.5;" x1="1082.5" x2="1223.5" y1="276" y2="276"/><!--MD5=[87a539c8ffda9899d7089473825d3d25]
class trap--><rect fill="#FEFECE" filter="url(#f6jvwc54cho4i)" height="48" id="trap" style="stroke:#A80036;stroke-width:1.5;" width="56" x="407" y="128"/><ellipse cx="422" cy="144" fill="#ADD1B2" rx="11" ry="11" style="stroke:#A80036;stroke-width:1.0;"/><path d="M424.4731,150.1431 Q423.8921,150.4419 423.2529,150.5913 Q422.6138,150.7407 421.9082,150.7407 Q419.4014,150.7407 418.0815,149.0889 Q416.7617,147.437 416.7617,144.3159 Q416.7617,141.1865 418.0815,139.5347 Q419.4014,137.8828 421.9082,137.8828 Q422.6138,137.8828 423.2612,138.0322 Q423.9087,138.1816 424.4731,138.4805 L424.4731,141.2031 Q423.8423,140.6221 423.2488,140.3523 Q422.6553,140.0825 422.0244,140.0825 Q420.6797,140.0825 419.9949,141.1492 Q419.3101,142.2158 419.3101,144.3159 Q419.3101,146.4077 419.9949,147.4744 Q420.6797,148.541 422.0244,148.541 Q422.6553,148.541 423.2488,148.2712 Q423.8423,148.0015 424.4731,147.4204 Z " fill="#000000"/><text fill="#000000" font-family="sans-serif" font-size="12" lengthAdjust="spacing" textLength="24" x="436" y="148.5352">trap</text><line style="stroke:#A80036;stroke-width:1.5;" x1="408" x2="462" y1="160" y2="160"/><line style="stroke:#A80036;stroke-width:1.5;" x1="408" x2="462" y1="168" y2="168"/><!--MD5=[a21208b6289a9a764718287a49fafbeb]
reverse link entity to player--><path codeLine="85" d="M605.26,86.65 C611.83,100.86 618.72,115.78 624.22,127.67 " fill="none" id="entity-backto-player" style="stroke:#A80036;stroke-width:1.0;"/><polygon fill="none" points="598.7,89.15,596.66,68.06,611.41,83.28,598.7,89.15" style="stroke:#A80036;stroke-width:1.0;"/><!--MD5=[a457ebe890124594414f52c17d875383]
reverse link entity to goblin--><path codeLine="86" d="M561.17,86.65 C554.73,100.86 547.97,115.78 542.58,127.67 " fill="none" id="entity-backto-goblin" style="stroke:#A80036;stroke-width:1.0;"/><polygon fill="none" points="554.97,83.38,569.6,68.06,567.72,89.16,554.97,83.38" style="stroke:#A80036;stroke-width:1.0;"/><!--MD5=[5910a5b3c7e0c772202fbf474d46a854]
reverse link entity to potion--><path codeLine="87" d="M634.98,76.23 C658.6,93.37 685.78,113.1 706.29,127.98 " fill="none" id="entity-backto-potion" style="stroke:#A80036;stroke-width:1.0;"/><polygon fill="none" points="630.63,81.72,618.56,64.31,638.86,70.39,630.63,81.72" style="stroke:#A80036;stroke-width:1.0;"/><!--MD5=[9ce6c3fc7ce170f77a5b03f4776e356d]
reverse link entity to wall--><path codeLine="88" d="M637.07,60.6 C679.13,78.09 738.74,103.56 790,128 C795.45,130.6 801.2,133.49 806.7,136.33 " fill="none" id="entity-backto-wall" style="stroke:#A80036;stroke-width:1.0;"/><polygon fill="none" points="634.32,67.03,618.52,52.92,639.67,54.1,634.32,67.03" style="stroke:#A80036;stroke-width:1.0;"/><!--MD5=[13352e14eb64168a9b63e6fc797a3214]
reverse link entity to trap--><path codeLine="89" d="M531.2,77.88 C508.31,95.28 482.29,115.05 463.09,129.65 " fill="none" id="entity-backto-trap" style="stroke:#A80036;stroke-width:1.0;"/><polygon fill="none" points="527.02,72.26,547.17,65.73,535.49,83.41,527.02,72.26" style="stroke:#A80036;stroke-width:1.0;"/><!--MD5=[438853dccc13e69db2448dceb931d6ce]
reverse link player to health_component--><path codeLine="91" d="M618.19,187.94 C610.65,203.61 601.95,221.68 595.22,235.68 " fill="none" id="player-backto-health_component" style="stroke:#A80036;stroke-width:1.0;"/><polygon fill="#A80036" points="623.93,176,617.7224,179.6696,618.7222,186.8111,624.9298,183.1415,623.93,176" style="stroke:#A80036;stroke-width:1.0;"/><!--MD5=[3a0e96bb6e1bbfb7857e42200c1c47cb]
reverse link player to atk_component--><path codeLine="92" d="M588.87,173.92 C586.89,174.65 584.93,175.35 583,176 C473.47,212.86 441.69,206.31 330,236 C324.27,237.52 318.32,239.17 312.38,240.85 " fill="none" id="player-backto-atk_component" style="stroke:#A80036;stroke-width:1.0;"/><polygon fill="#A80036" points="600.95,169.12,593.8966,167.62,589.7992,173.5539,596.8526,175.0539,600.95,169.12" style="stroke:#A80036;stroke-width:1.0;"/><!--MD5=[6ad5c5525ae850c25c196f9a66b718de]
reverse link player to move_component--><path codeLine="93" d="M588.97,175.08 C551.82,192.9 499.71,217.89 462.04,235.96 " fill="none" id="player-backto-move_component" style="stroke:#A80036;stroke-width:1.0;"/><polygon fill="#A80036" points="600.95,169.33,593.8095,168.3231,590.1338,174.5271,597.2742,175.5339,600.95,169.33" style="stroke:#A80036;stroke-width:1.0;"/><!--MD5=[d50846d4f73d980c3e622479074e8d07]
reverse link player to decision_making_component--><path codeLine="94" d="M681.2,173.74 C683.15,174.52 685.09,175.28 687,176 C746.8,198.66 815.81,220.42 867.85,235.97 " fill="none" id="player-backto-decision_making_component" style="stroke:#A80036;stroke-width:1.0;"/><polygon fill="#A80036" points="669.19,168.75,673.1961,174.7459,680.2716,173.3541,676.2655,167.3582,669.19,168.75" style="stroke:#A80036;stroke-width:1.0;"/><!--MD5=[3d545a97f60015438a3fdde5035b1451]
reverse link player to logging_component--><path codeLine="95" d="M681.45,174.24 C683.31,174.87 685.17,175.46 687,176 C849.72,224.05 897.9,201.4 1064,236 C1069.62,237.17 1075.43,238.47 1081.25,239.83 " fill="none" id="player-backto-logging_component" style="stroke:#A80036;stroke-width:1.0;"/><polygon fill="#A80036" points="669.21,169.62,673.4144,175.4786,680.4394,173.8508,676.235,167.9923,669.21,169.62" style="stroke:#A80036;stroke-width:1.0;"/><!--MD5=[bf9dcbe07c5d6a940f0f1e5704ff8546]
reverse link player to repr_component--><path codeLine="96" d="M669.95,184.94 C687.82,201.27 709.18,220.78 725.48,235.68 " fill="none" id="player-backto-repr_component" style="stroke:#A80036;stroke-width:1.0;"/><polygon fill="#A80036" points="660.17,176,661.9014,183.0002,669.029,184.0944,667.2976,177.0942,660.17,176" style="stroke:#A80036;stroke-width:1.0;"/><!--MD5=[4cd38956723e565de0ae0501edcc09a6]
reverse link goblin to health_component--><path codeLine="98" d="M549.14,187.94 C556.83,203.61 565.69,221.68 572.56,235.68 " fill="none" id="goblin-backto-health_component" style="stroke:#A80036;stroke-width:1.0;"/><polygon fill="#A80036" points="543.28,176,542.3329,183.1486,548.5673,186.7724,549.5144,179.6238,543.28,176" style="stroke:#A80036;stroke-width:1.0;"/><!--MD5=[d84acc5e93cd430c7c0cd60a1c3fb7d5]
reverse link goblin to atk_component--><path codeLine="99" d="M486.39,173.77 C484.57,174.54 482.77,175.28 481,176 C424.38,198.99 358.72,222.47 312.26,238.56 " fill="none" id="goblin-backto-atk_component" style="stroke:#A80036;stroke-width:1.0;"/><polygon fill="#A80036" points="498.41,168.58,491.3153,167.2895,487.3953,173.342,494.49,174.6326,498.41,168.58" style="stroke:#A80036;stroke-width:1.0;"/><!--MD5=[34b7c68fa29f1fe90122996f64149739]
reverse link goblin to move_component--><path codeLine="100" d="M496.7,184.71 C478.47,201.09 456.62,220.71 439.96,235.68 " fill="none" id="goblin-backto-move_component" style="stroke:#A80036;stroke-width:1.0;"/><polygon fill="#A80036" points="506.4,176,499.2641,177.0389,497.4785,184.0254,504.6144,182.9865,506.4,176" style="stroke:#A80036;stroke-width:1.0;"/><!--MD5=[64a5d09ffa2c560b47ed99dd1b580781]
reverse link goblin to decision_making_component--><path codeLine="101" d="M578.03,173.91 C580.04,174.65 582.03,175.35 584,176 C632.45,192.07 759.06,219.78 849.32,238.73 " fill="none" id="goblin-backto-decision_making_component" style="stroke:#A80036;stroke-width:1.0;"/><polygon fill="#A80036" points="565.76,169.05,569.8659,174.978,576.9171,173.468,572.8112,167.54,565.76,169.05" style="stroke:#A80036;stroke-width:1.0;"/><!--MD5=[59a6587a3e78b72dd74df373f0465966]
reverse link goblin to repr_component--><path codeLine="102" d="M577.61,175.08 C614.43,192.9 666.06,217.89 703.4,235.96 " fill="none" id="goblin-backto-repr_component" style="stroke:#A80036;stroke-width:1.0;"/><polygon fill="#A80036" points="565.74,169.33,569.4005,175.543,576.5434,174.5536,572.8829,168.3407,565.74,169.33" style="stroke:#A80036;stroke-width:1.0;"/><!--MD5=[72fb9b129dde7d30e0c57f1b04a6f8a7]
reverse link trap to atk_component--><path codeLine="104" d="M395.27,176.01 C364.62,193.76 322.43,218.2 291.78,235.96 " fill="none" id="trap-backto-atk_component" style="stroke:#A80036;stroke-width:1.0;"/><polygon fill="#A80036" points="406.81,169.33,399.6131,168.877,396.427,175.3461,403.6239,175.799,406.81,169.33" style="stroke:#A80036;stroke-width:1.0;"/><!--MD5=[bb8e957ac5b6bd55c17a9bcee7f55b05]
@startuml entityDigram
    note "entity  is not abstract class it is used for convinience.\n In principle there might be entity that do not extend it" as N

    class entity {
        {field} entity_id id
    }
    entity .. N

    class player 
    class potion
    class goblin
    class wall
    
    class move_component 
    class atk_component
    class health_component
    class repr_component
    class decision_making_component
    class logging_component
    

    entity <|- - player
    entity <|- - goblin
    entity <|- - potion
    entity <|- - wall
    entity <|- - trap
    
    player *- - health_component
    player *- - atk_component
    player *- - move_component
    player *- - decision_making_component
    player *- - logging_component
    player *- - repr_component
    
    goblin *- - health_component
    goblin *- - atk_component
    goblin *- - move_component
    goblin *- - decision_making_component
    goblin *- - repr_component
    
    trap *- - atk_component
    
@enduml

PlantUML version 1.2021.5(Sun Apr 25 14:20:28 MSK 2021)
(GPL source distribution)
Java Runtime: OpenJDK Runtime Environment
JVM: OpenJDK 64-Bit Server VM
Default Encoding: UTF-8
Language: en
Country: GB
--></g></svg>